<svg width="489" height="200" viewBox="0 0 489 200" fill="none" xmlns="http://www.w3.org/2000/svg">
<g clip-path="url(#clip0_0_1)">
<g clip-path="url(#clip1_0_1)">
<path d="M132.247 104.527C138.342 102.225 142.147 96.0916 141.42 89.6674C141.36 89.1386 141.269 88.608 141.147 88.0773C141.071 87.7473 141.024 87.4134 140.926 87.0945L126.96 90.3189L112.994 93.5432C113.03 93.7748 113.137 94.2068 113.224 94.5576C113.26 94.7059 113.293 94.8398 113.316 94.938C113.674 96.4896 114.278 97.9215 115.077 99.2032C117.632 103.298 122.082 105.518 127.013 105.543C128.116 105.549 129.249 105.353 130.371 105.094C131.018 104.945 131.643 104.754 132.247 104.527Z" fill="white"/>
<path d="M172.063 68.315C173.822 75.9331 168.996 83.5522 161.284 85.3326C159.766 85.6832 158.248 85.7814 156.777 85.6545C150.779 85.1372 145.549 80.8804 144.136 74.7624C142.66 68.3662 145.824 61.9694 151.442 59.0282C152.515 58.4661 153.678 58.0303 154.915 57.7448C162.626 55.9644 170.304 60.6968 172.063 68.315Z" fill="#8BD0BE"/>
<path d="M94.7392 100.696C87.0275 102.476 79.3502 97.7436 77.5914 90.1255C75.8327 82.5073 80.6584 74.8882 88.37 73.1078C88.7747 73.0144 89.1793 72.9389 89.583 72.8808C96.8712 71.8322 103.851 76.4597 105.518 83.6782C107.119 90.6144 103.262 97.5514 96.7379 100.082C96.0965 100.33 95.4294 100.536 94.7392 100.696Z" fill="#8BD0BE"/>
<path fill-rule="evenodd" clip-rule="evenodd" d="M132.399 113.877L125.515 115.467L114.086 133.883L110.628 118.904L99.3477 121.508C97.6819 121.636 96.0264 121.653 94.3902 121.562C83.616 120.966 73.6746 115.734 67.0938 107.439C66.7046 106.948 66.3271 106.447 65.9619 105.935C63.2062 102.073 61.1497 97.6196 60.0171 92.7138C58.7344 87.1577 58.7711 81.6037 59.9226 76.3768C61.7411 68.1231 66.4441 60.6612 73.0175 55.3208L116.559 45.2684L126.96 90.3189L112.994 93.5432C113.03 93.7748 113.137 94.2068 113.224 94.5576C113.26 94.7059 113.293 94.8398 113.316 94.938C113.674 96.4896 114.278 97.9215 115.077 99.2032C117.632 103.298 122.082 105.518 127.013 105.543C128.116 105.549 129.249 105.353 130.371 105.094L132.399 113.877ZM94.7392 100.696C87.0275 102.476 79.3502 97.7436 77.5915 90.1255C75.8327 82.5073 80.6584 74.8882 88.37 73.1079C88.7747 73.0144 89.1793 72.939 89.583 72.8809C96.8712 71.8322 103.851 76.4598 105.518 83.6782C107.119 90.6145 103.262 97.5514 96.7379 100.082C96.0965 100.33 95.4294 100.536 94.7392 100.696Z" fill="#282244"/>
<path d="M199.589 37.3068C190.348 23.7716 176.005 14.5145 159.957 11.741L111.407 22.9498L116.559 45.2684L158.562 35.5713C167.252 37.5921 174.992 42.6653 180.281 49.8572C183.192 53.8163 185.36 58.4174 186.535 63.5049C187.709 68.5924 187.777 73.6783 186.896 78.5129C185.578 85.7475 182.134 92.4192 177.09 97.6904C173.436 101.511 168.941 104.595 163.807 106.626C162.067 107.314 160.252 107.882 158.373 108.316C156.493 108.75 154.614 109.035 152.748 109.179L151.181 109.541L132.399 113.877L137.361 135.369L175.266 126.618C182.668 123.194 189.149 118.353 194.452 112.505C202.258 103.9 207.516 93.117 209.413 81.4657C210.647 73.8814 210.458 65.9293 208.621 57.9706C206.861 50.3483 203.745 43.3941 199.589 37.3068Z" fill="#B4B1AA"/>
<path d="M203.636 128.438C190.903 132.144 180.25 139.781 172.69 149.714C162.599 144.633 151.057 142.354 139.269 143.635L157.112 220.921C161.088 219.957 164.765 218.394 168.067 216.351C174.463 212.392 179.453 206.633 182.493 199.938C190.172 194.454 196.401 187.254 200.759 179.02C207.351 166.562 209.662 151.733 206.234 136.882C205.56 133.966 204.688 131.148 203.636 128.438Z" fill="#B4B1AA"/>
<path fill-rule="evenodd" clip-rule="evenodd" d="M186.535 63.5049C185.36 58.4174 183.192 53.8163 180.281 49.8572C174.992 42.6653 167.252 37.5921 158.562 35.5713L116.559 45.2684L126.96 90.3189L140.926 87.0945C141.024 87.4134 141.071 87.7473 141.147 88.0773C141.269 88.608 141.36 89.1386 141.42 89.6674C142.147 96.0916 138.342 102.225 132.247 104.527C131.643 104.754 131.018 104.945 130.371 105.094L132.399 113.877L151.181 109.541C151.224 109.448 151.267 109.356 151.309 109.263C151.788 109.244 152.267 109.216 152.748 109.179L163.807 106.626C168.941 104.595 173.436 101.511 177.09 97.6904C182.134 92.4192 185.578 85.7475 186.896 78.5129C187.777 73.6783 187.709 68.5924 186.535 63.5049ZM161.284 85.3326C168.996 83.5522 173.822 75.9332 172.063 68.315C170.304 60.6968 162.626 55.9644 154.915 57.7448C153.678 58.0303 152.515 58.4661 151.442 59.0282C145.824 61.9694 142.66 68.3662 144.136 74.7624C145.549 80.8804 150.779 85.1372 156.777 85.6545C158.248 85.7814 159.766 85.6832 161.284 85.3326Z" fill="#17152D"/>
<path d="M59.9226 76.3768C61.7411 68.1231 66.4441 60.6612 73.0175 55.3208L116.559 45.2684L111.407 22.9498L61.2527 34.5287C47.9358 44.1351 39.0253 58.9155 36.7418 75.2923C35.742 82.4628 36.0126 89.9393 37.74 97.4214C38.8306 102.145 40.4421 106.613 42.4993 110.776C43.8515 113.513 45.3963 116.118 47.1123 118.579C56.5722 132.143 71.2343 141.307 87.5161 143.817C90.8891 144.337 94.3317 144.571 97.8122 144.5L137.361 135.369L132.399 113.877L125.515 115.467L114.086 133.883L110.628 118.904L99.3477 121.508C97.6819 121.636 96.0264 121.653 94.3902 121.562C83.616 120.966 73.6746 115.734 67.0938 107.439C66.7046 106.948 66.3271 106.447 65.9619 105.935C63.2062 102.073 61.1497 97.6196 60.0171 92.7137C58.7344 87.1577 58.771 81.6037 59.9226 76.3768Z" fill="#E2E4DF"/>
<path d="M199.589 37.3068C203.745 43.3941 206.861 50.3483 208.621 57.9705C210.458 65.9293 210.647 73.8814 209.413 81.4657C219.899 77.3356 226.086 66.1522 223.504 54.9698C220.95 43.9088 210.686 36.6075 199.589 37.3068Z" fill="#B4B1AA"/>
<path d="M115.153 202.211C122.905 216.776 139.781 224.925 156.702 221.019C156.831 220.989 156.959 220.958 157.088 220.928L157.112 220.921L139.269 143.635C136.916 143.891 134.553 144.289 132.19 144.834C129.172 145.531 126.259 146.445 123.465 147.556C96.2321 158.379 80.2605 187.894 87.0952 217.498C87.5256 219.362 88.0371 221.187 88.6252 222.968C99.5141 218.641 108.603 211.325 115.153 202.211Z" fill="#E2E4DF"/>
<path d="M36.7418 75.2924C27.5091 79.9961 22.2814 90.4333 24.6908 100.869C26.0777 106.877 29.7394 111.775 34.5736 114.885C38.2392 117.244 42.5789 118.573 47.1123 118.579C45.3963 116.118 43.8515 113.513 42.4993 110.776C40.4421 106.613 38.8306 102.145 37.74 97.4215C36.0126 89.9393 35.742 82.4629 36.7418 75.2924Z" fill="#E2E4DF"/>
</g>
<path d="M260.222 14.0041H256.68V12.7132H265.154V14.0041H261.612V24H260.222V14.0041ZM267.452 11.6044L268.776 11.4554V16.7182C269.107 16.4975 269.433 16.3044 269.753 16.1389C270.084 15.9735 270.42 15.83 270.762 15.7087C271.104 15.5763 271.435 15.5101 271.755 15.5101C272.208 15.5101 272.583 15.5652 272.881 15.6756C273.19 15.7749 273.438 15.9459 273.625 16.1886C273.813 16.4313 273.945 16.7513 274.023 17.1485C274.111 17.5457 274.155 18.0421 274.155 18.6379V24H272.831V18.7869C272.831 18.4559 272.825 18.1635 272.814 17.9098C272.803 17.645 272.754 17.4243 272.665 17.2478C272.588 17.0602 272.461 16.9168 272.285 16.8175C272.119 16.7182 271.882 16.6685 271.573 16.6685C271.286 16.6685 270.977 16.7347 270.646 16.8671C270.315 16.9885 270.001 17.1319 269.703 17.2974C269.405 17.4629 269.096 17.656 268.776 17.8767V24H267.452V11.6044ZM278.258 19.8792C278.258 20.9494 278.495 21.7493 278.969 22.2788C279.455 22.7974 280.106 23.0567 280.922 23.0567C281.727 23.0567 282.356 22.7974 282.809 22.2788C283.261 21.7603 283.487 20.9825 283.487 19.9454C283.487 18.842 283.245 18.0201 282.759 17.4795C282.285 16.9388 281.634 16.6685 280.806 16.6685C279.979 16.6685 279.344 16.9388 278.903 17.4795C278.473 18.0091 278.258 18.8089 278.258 19.8792ZM276.851 19.8626C276.851 19.0241 276.983 18.329 277.248 17.7774C277.513 17.2147 277.849 16.7678 278.258 16.4368C278.666 16.0948 279.102 15.8576 279.565 15.7252C280.039 15.5818 280.486 15.5101 280.905 15.5101C281.303 15.5101 281.733 15.5763 282.196 15.7087C282.671 15.83 283.107 16.0562 283.504 16.3872C283.901 16.7071 284.232 17.143 284.497 17.6946C284.762 18.2352 284.894 18.9248 284.894 19.7633C284.894 20.6349 284.756 21.3576 284.48 21.9313C284.215 22.505 283.879 22.9629 283.471 23.3049C283.062 23.6359 282.621 23.8676 282.147 24C281.672 24.1434 281.231 24.2151 280.823 24.2151C280.403 24.2151 279.962 24.1489 279.499 24.0165C279.035 23.8842 278.605 23.658 278.208 23.338C277.822 23.007 277.496 22.5602 277.231 21.9975C276.978 21.4348 276.851 20.7232 276.851 19.8626ZM287.628 11.6044L288.952 11.4554V16.3872C289.195 16.2217 289.449 16.0783 289.713 15.9569C289.934 15.8466 290.182 15.7473 290.458 15.659C290.734 15.5597 291.01 15.5101 291.286 15.5101C291.738 15.5101 292.163 15.5983 292.56 15.7749C292.968 15.9514 293.321 16.2162 293.619 16.5692C293.928 16.9223 294.171 17.3691 294.347 17.9098C294.524 18.4504 294.612 19.0903 294.612 19.8295C294.612 20.646 294.496 21.3355 294.265 21.8982C294.044 22.4499 293.741 22.8967 293.354 23.2387C292.979 23.5807 292.549 23.829 292.064 23.9835C291.578 24.1379 291.082 24.2151 290.574 24.2151C290.067 24.2151 289.625 24.1765 289.25 24.0993C288.886 24.0331 288.583 23.9559 288.34 23.8676C288.053 23.7573 287.816 23.6359 287.628 23.5035V11.6044ZM288.952 22.7753C289.096 22.8305 289.25 22.8801 289.416 22.9243C289.581 22.9574 289.758 22.9905 289.945 23.0236C290.144 23.0456 290.353 23.0567 290.574 23.0567C291.082 23.0567 291.506 22.985 291.848 22.8415C292.19 22.6981 292.461 22.4885 292.659 22.2126C292.858 21.9368 292.996 21.6058 293.073 21.2197C293.161 20.8225 293.205 20.3812 293.205 19.8957C293.205 19.5095 293.161 19.1234 293.073 18.7372C292.996 18.3511 292.869 18.0091 292.692 17.7112C292.516 17.4022 292.295 17.154 292.03 16.9664C291.777 16.7678 291.479 16.6685 291.137 16.6685C290.905 16.6685 290.662 16.7182 290.409 16.8175C290.155 16.9057 289.918 17.0106 289.697 17.1319C289.443 17.2643 289.195 17.4133 288.952 17.5788V22.7753ZM298.321 19.8792C298.321 20.9494 298.558 21.7493 299.032 22.2788C299.518 22.7974 300.169 23.0567 300.985 23.0567C301.791 23.0567 302.419 22.7974 302.872 22.2788C303.324 21.7603 303.55 20.9825 303.55 19.9454C303.55 18.842 303.308 18.0201 302.822 17.4795C302.348 16.9388 301.697 16.6685 300.869 16.6685C300.042 16.6685 299.407 16.9388 298.966 17.4795C298.536 18.0091 298.321 18.8089 298.321 19.8792ZM296.914 19.8626C296.914 19.0241 297.046 18.329 297.311 17.7774C297.576 17.2147 297.912 16.7678 298.321 16.4368C298.729 16.0948 299.165 15.8576 299.628 15.7252C300.103 15.5818 300.549 15.5101 300.969 15.5101C301.366 15.5101 301.796 15.5763 302.26 15.7087C302.734 15.83 303.17 16.0562 303.567 16.3872C303.964 16.7071 304.295 17.143 304.56 17.6946C304.825 18.2352 304.957 18.9248 304.957 19.7633C304.957 20.6349 304.819 21.3576 304.543 21.9313C304.279 22.505 303.942 22.9629 303.534 23.3049C303.126 23.6359 302.684 23.8676 302.21 24C301.735 24.1434 301.294 24.2151 300.886 24.2151C300.467 24.2151 300.025 24.1489 299.562 24.0165C299.099 23.8842 298.668 23.658 298.271 23.338C297.885 23.007 297.559 22.5602 297.295 21.9975C297.041 21.4348 296.914 20.7232 296.914 19.8626ZM307.724 17.0161C307.724 16.7623 307.697 16.3651 307.642 15.8245L308.866 15.659L308.999 16.8671H309.015C309.214 16.6134 309.407 16.3927 309.595 16.2051C309.782 16.0176 309.975 15.8576 310.174 15.7252C310.383 15.5818 310.582 15.5101 310.77 15.5101C311.023 15.499 311.376 15.5266 311.829 15.5928L311.531 16.8671C311.167 16.8009 310.913 16.7733 310.77 16.7844C310.582 16.7844 310.383 16.8726 310.174 17.0492C309.964 17.2257 309.782 17.4133 309.628 17.6119C309.429 17.8546 309.236 18.1304 309.048 18.4393V24H307.724V17.0161ZM321.077 14.0041H317.536V12.7132H326.009V14.0041H322.467V24H321.077V14.0041ZM333.203 23.8014C332.95 23.8786 332.685 23.9448 332.409 24C332.144 24.0552 331.846 24.1048 331.515 24.1489C331.195 24.1931 330.859 24.2151 330.506 24.2151C329.954 24.2151 329.441 24.1379 328.967 23.9835C328.492 23.829 328.079 23.5807 327.726 23.2387C327.373 22.8967 327.091 22.4554 326.882 21.9148C326.683 21.3631 326.584 20.6901 326.584 19.8957C326.584 19.1786 326.683 18.5497 326.882 18.0091C327.08 17.4574 327.35 16.9995 327.692 16.6354C328.046 16.2603 328.454 15.979 328.917 15.7914C329.392 15.6038 329.905 15.5101 330.456 15.5101C330.997 15.5101 331.466 15.6149 331.863 15.8245C332.26 16.0341 332.586 16.321 332.839 16.6851C333.104 17.0381 333.297 17.4574 333.419 17.9429C333.551 18.4173 333.617 18.9193 333.617 19.4489L333.369 20.177H328.023C328.023 20.5191 328.068 20.8611 328.156 21.2031C328.244 21.5451 328.393 21.8541 328.603 22.1299C328.823 22.4057 329.105 22.6319 329.447 22.8084C329.8 22.9739 330.236 23.0567 330.754 23.0567C331.085 23.0567 331.389 23.0401 331.664 23.007C331.94 22.9629 332.177 22.9188 332.376 22.8746C332.586 22.8195 332.779 22.7588 332.955 22.6926L333.203 23.8014ZM332.244 19.1179C332.244 19.0406 332.227 18.8696 332.194 18.6048C332.161 18.34 332.084 18.0642 331.962 17.7774C331.841 17.4905 331.653 17.2367 331.4 17.0161C331.146 16.7844 330.809 16.6685 330.39 16.6685C329.927 16.6685 329.546 16.7678 329.248 16.9664C328.95 17.154 328.713 17.3802 328.536 17.645C328.36 17.9098 328.239 18.1801 328.172 18.4559C328.106 18.7317 328.073 18.9524 328.073 19.1179H332.244ZM340.88 20.177C340.659 20.1881 340.45 20.1991 340.251 20.2101C340.053 20.2212 339.854 20.2377 339.655 20.2598C339.468 20.2708 339.297 20.2874 339.142 20.3094C338.348 20.4087 337.785 20.5853 337.454 20.839C337.123 21.0818 336.958 21.4348 336.958 21.8982C336.958 22.2844 337.074 22.5767 337.305 22.7753C337.548 22.9629 337.863 23.0567 338.249 23.0567C338.778 23.0567 339.247 22.9684 339.655 22.7919C340.075 22.6043 340.483 22.3616 340.88 22.0637V20.177ZM340.864 23.2222C340.345 23.5201 339.86 23.7628 339.407 23.9504C338.966 24.1269 338.486 24.2151 337.967 24.2151C337.228 24.2151 336.638 24.0386 336.197 23.6856C335.766 23.3215 335.551 22.7257 335.551 21.8982C335.551 21.4679 335.662 21.0928 335.882 20.7728C336.103 20.4529 336.39 20.1881 336.743 19.9785C337.107 19.7578 337.515 19.5868 337.967 19.4654C338.42 19.3441 338.883 19.2668 339.358 19.2337C339.556 19.2117 339.815 19.1951 340.135 19.1841C340.455 19.162 340.704 19.1455 340.88 19.1344C340.88 18.7483 340.869 18.4062 340.847 18.1083C340.825 17.7994 340.759 17.5401 340.648 17.3305C340.538 17.1099 340.373 16.9444 340.152 16.834C339.942 16.7237 339.639 16.6685 339.242 16.6685C338.922 16.6685 338.613 16.6906 338.315 16.7347C338.017 16.7678 337.752 16.8064 337.521 16.8506C337.245 16.9057 336.991 16.9664 336.759 17.0326L336.495 15.8907C336.77 15.8245 337.068 15.7638 337.388 15.7087C337.664 15.6535 337.984 15.6094 338.348 15.5763C338.712 15.5321 339.104 15.5101 339.523 15.5101C340.086 15.5101 340.538 15.5928 340.88 15.7583C341.233 15.9238 341.504 16.15 341.691 16.4368C341.89 16.7127 342.022 17.0326 342.088 17.3967C342.166 17.7498 342.204 18.1249 342.204 18.5221V22.494C342.204 22.6485 342.204 22.8139 342.204 22.9905C342.215 23.156 342.226 23.3215 342.237 23.487C342.259 23.6525 342.281 23.8235 342.303 24L341.029 24.1324L340.864 23.2222ZM345.381 17.1816C345.381 16.8064 345.348 16.3541 345.282 15.8245L346.523 15.659L346.705 16.7016C347.003 16.481 347.295 16.2879 347.582 16.1224C347.869 15.9569 348.178 15.8135 348.509 15.6921C348.84 15.5707 349.177 15.5101 349.519 15.5101C350.07 15.5101 350.506 15.6094 350.826 15.808C351.146 15.9955 351.383 16.321 351.538 16.7844C351.99 16.4644 352.459 16.172 352.944 15.9073C353.441 15.6425 353.954 15.5101 354.484 15.5101C354.892 15.5101 355.239 15.5652 355.526 15.6756C355.813 15.7749 356.045 15.9459 356.221 16.1886C356.398 16.4313 356.525 16.7513 356.602 17.1485C356.679 17.5457 356.718 18.0421 356.718 18.6379V24H355.394V18.7869C355.394 18.4559 355.388 18.1635 355.377 17.9098C355.366 17.645 355.328 17.4243 355.261 17.2478C355.195 17.0602 355.085 16.9168 354.93 16.8175C354.787 16.7182 354.577 16.6685 354.301 16.6685C354.048 16.6685 353.805 16.7071 353.573 16.7844C353.353 16.8506 353.121 16.9499 352.878 17.0823C352.635 17.2147 352.26 17.485 351.753 17.8932V24H350.429V18.7869C350.429 18.4559 350.423 18.1635 350.412 17.9098C350.401 17.645 350.363 17.4243 350.296 17.2478C350.23 17.0602 350.12 16.9168 349.965 16.8175C349.822 16.7182 349.612 16.6685 349.337 16.6685C349.05 16.6685 348.752 16.7292 348.443 16.8506C348.134 16.9719 347.842 17.1154 347.566 17.2809C347.29 17.4464 347.003 17.6394 346.705 17.8601V24H345.381V17.1816Z" fill="#8E8D94"/>
<path d="M237.275 52.4878C237.275 41.6339 246.074 32.8351 256.927 32.8351V32.8351V61.2797H237.275V52.4878Z" fill="#2FCC59" stroke="#2FCC59" stroke-width="0.805851"/>
<rect x="237.275" y="61.2797" width="19.6526" height="4.12144" fill="#2FCC59" stroke="#2FCC59" stroke-width="0.805851"/>
<path fill-rule="evenodd" clip-rule="evenodd" d="M237.632 77.9398C237.397 76.727 237.275 75.4744 237.275 74.1931V65.4012H256.927V93.8457C252.168 93.8457 247.804 92.1542 244.404 89.3395C241.012 91.5995 235.572 93.7477 229 92.5528C230.81 91.7771 237.792 87.1225 237.533 77.8133C237.565 77.8565 237.597 77.8986 237.632 77.9398Z" fill="#2FCC59"/>
<path d="M237.632 77.9398L237.321 78.1965L238.027 77.8635L237.632 77.9398ZM237.275 65.4012V64.9982H236.872V65.4012H237.275ZM256.927 65.4012H257.33V64.9982H256.927V65.4012ZM256.927 93.8457V94.2487H257.33V93.8457H256.927ZM244.404 89.3395L244.661 89.0291L244.43 88.838L244.181 89.0041L244.404 89.3395ZM229 92.5528L228.841 92.1825L227.611 92.7098L228.928 92.9492L229 92.5528ZM237.533 77.8133L237.859 77.5763L237.095 76.5248L237.131 77.8245L237.533 77.8133ZM236.872 74.1931C236.872 75.5001 236.997 76.7783 237.236 78.0162L238.027 77.8635C237.798 76.6756 237.678 75.4486 237.678 74.1931H236.872ZM236.872 65.4012V74.1931H237.678V65.4012H236.872ZM256.927 64.9982H237.275V65.8041H256.927V64.9982ZM257.33 93.8457V65.4012H256.525V93.8457H257.33ZM244.147 89.6499C247.617 92.5222 252.071 94.2487 256.927 94.2487V93.4428C252.266 93.4428 247.992 91.7862 244.661 89.0291L244.147 89.6499ZM228.928 92.9492C235.628 94.1675 241.173 91.9764 244.627 89.6748L244.181 89.0041C240.851 91.2226 235.516 93.328 229.072 92.1564L228.928 92.9492ZM237.131 77.8245C237.257 82.3679 235.618 85.7681 233.728 88.1314C231.829 90.5045 229.685 91.821 228.841 92.1825L229.159 92.9232C230.125 92.5088 232.377 91.1102 234.357 88.6348C236.345 86.1496 238.069 82.5679 237.936 77.8022L237.131 77.8245ZM237.942 77.6832C237.913 77.6483 237.886 77.6127 237.859 77.5763L237.208 78.0503C237.244 78.1003 237.282 78.149 237.321 78.1965L237.942 77.6832Z" fill="#2FCC59"/>
<rect x="256.927" y="32.8351" width="198.42" height="61.0106" fill="#2FCC59"/>
<rect x="256.927" y="32.8351" width="198.42" height="61.0106" stroke="#2FCC59" stroke-width="0.805851"/>
<path d="M259.34 53.6466H261.642V61.7327H271.099V53.6466H273.401V72.3404H271.099V63.7884H261.642V72.3404H259.34V53.6466ZM287.644 72.0115C287.224 72.1394 286.786 72.2491 286.329 72.3404C285.89 72.4318 285.397 72.514 284.849 72.5871C284.319 72.6602 283.761 72.6968 283.177 72.6968C282.263 72.6968 281.413 72.5688 280.627 72.313C279.842 72.0572 279.156 71.646 278.572 71.0796C277.987 70.5131 277.521 69.7821 277.174 68.8867C276.845 67.9731 276.68 66.8584 276.68 65.5427C276.68 64.3549 276.845 63.3133 277.174 62.4179C277.503 61.5042 277.95 60.7459 278.517 60.1429C279.102 59.5216 279.778 59.0556 280.545 58.7449C281.331 58.4343 282.181 58.279 283.094 58.279C283.99 58.279 284.766 58.4526 285.424 58.7998C286.082 59.147 286.621 59.6221 287.041 60.2251C287.48 60.8098 287.8 61.5042 288.001 62.3083C288.22 63.094 288.33 63.9255 288.33 64.8026L287.919 66.0087H279.065C279.065 66.5751 279.138 67.1416 279.284 67.7081C279.431 68.2746 279.677 68.7862 280.024 69.2431C280.39 69.6999 280.856 70.0745 281.422 70.3669C282.007 70.641 282.729 70.778 283.588 70.778C284.136 70.778 284.638 70.7506 285.095 70.6958C285.552 70.6227 285.945 70.5496 286.274 70.4765C286.621 70.3852 286.941 70.2847 287.233 70.175L287.644 72.0115ZM286.055 64.2544C286.055 64.1265 286.027 63.8432 285.972 63.4047C285.918 62.9661 285.79 62.5093 285.589 62.0342C285.388 61.5591 285.077 61.1388 284.657 60.7733C284.236 60.3896 283.679 60.1977 282.985 60.1977C282.217 60.1977 281.587 60.3621 281.093 60.6911C280.6 61.0017 280.207 61.3763 279.915 61.8149C279.622 62.2535 279.421 62.7012 279.312 63.158C279.202 63.6148 279.147 63.9803 279.147 64.2544H286.055ZM291.177 51.8101L293.369 51.5635V72.3404H291.177V51.8101ZM297.197 61.7327C297.197 61.0748 297.151 60.0972 297.06 58.7998L299.088 58.5257L299.335 60.0058C299.7 59.6952 300.075 59.4211 300.459 59.1835C300.861 58.9277 301.29 58.7175 301.747 58.5531C302.222 58.3703 302.724 58.279 303.254 58.279C304.004 58.279 304.707 58.4069 305.365 58.6627C306.041 58.9185 306.626 59.3297 307.119 59.8962C307.631 60.4626 308.033 61.2027 308.325 62.1164C308.618 63.0118 308.764 64.1173 308.764 65.433C308.764 66.767 308.563 67.9 308.161 68.8319C307.777 69.7456 307.265 70.4948 306.626 71.0796C306.005 71.646 305.292 72.0572 304.488 72.313C303.702 72.5688 302.898 72.6968 302.076 72.6968C301.199 72.6785 300.303 72.5688 299.39 72.3678V78.3159L297.197 78.59V61.7327ZM302.076 70.778C302.843 70.778 303.501 70.641 304.049 70.3669C304.597 70.0928 305.045 69.7182 305.392 69.2431C305.758 68.7497 306.023 68.1923 306.187 67.571C306.352 66.9315 306.434 66.2553 306.434 65.5427C306.434 64.9031 306.37 64.2635 306.242 63.624C306.132 62.9844 305.941 62.4179 305.666 61.9245C305.411 61.4129 305.063 61.0017 304.625 60.6911C304.186 60.3621 303.647 60.1977 303.008 60.1977C302.533 60.1977 302.085 60.2891 301.665 60.4718C301.244 60.6362 300.842 60.8464 300.459 61.1022C300.093 61.3398 299.737 61.6139 299.39 61.9245V70.3395C299.591 70.4126 299.81 70.4857 300.047 70.5588C300.303 70.6136 300.596 70.6684 300.925 70.7232C301.272 70.7598 301.655 70.778 302.076 70.778ZM326.212 70.8329H326.157C325.993 70.9608 325.755 71.1344 325.444 71.3537C325.134 71.5547 324.778 71.7557 324.375 71.9567C323.973 72.1577 323.526 72.3313 323.032 72.4775C322.557 72.6237 322.073 72.6968 321.58 72.6968C320.904 72.6968 320.328 72.6054 319.853 72.4227C319.378 72.2582 318.994 71.975 318.702 71.5729C318.409 71.1709 318.199 70.641 318.071 69.9831C317.943 69.3253 317.879 68.503 317.879 67.5162V58.5531H320.072V67.1873C320.072 67.7355 320.081 68.2289 320.099 68.6675C320.118 69.106 320.182 69.4806 320.291 69.7913C320.401 70.1019 320.575 70.3486 320.812 70.5313C321.068 70.6958 321.424 70.778 321.881 70.778C322.356 70.778 322.85 70.6775 323.361 70.4765C323.873 70.2755 324.339 70.0471 324.759 69.7913C325.253 69.4989 325.737 69.17 326.212 68.8045V58.5531H328.405V70.5588C328.423 71.2166 328.469 71.8105 328.542 72.3404L326.376 72.5597L326.212 70.8329ZM339.708 60.8007C338.94 60.5632 338.255 60.4078 337.652 60.3347C337.067 60.2434 336.528 60.1977 336.035 60.1977C335.395 60.1977 334.856 60.353 334.418 60.6637C333.997 60.9743 333.787 61.3763 333.787 61.8697C333.806 62.3083 333.997 62.6829 334.363 62.9935C334.728 63.3042 335.149 63.5874 335.624 63.8432C336.117 64.0808 336.656 64.3458 337.241 64.6381C337.844 64.9305 338.401 65.2594 338.913 65.6249C339.443 65.9904 339.872 66.4289 340.201 66.9406C340.53 67.4523 340.704 68.0644 340.722 68.7771C340.704 69.5446 340.53 70.1842 340.201 70.6958C339.891 71.1892 339.479 71.5912 338.968 71.9019C338.474 72.1942 337.935 72.3952 337.351 72.5049C336.766 72.6328 336.218 72.6968 335.706 72.6968C335.048 72.6968 334.363 72.6602 333.65 72.5871C332.956 72.514 332.207 72.3587 331.403 72.1211L331.814 70.1476C332.636 70.3669 333.385 70.5313 334.061 70.641C334.737 70.7324 335.295 70.778 335.733 70.778C336.062 70.778 336.382 70.7415 336.693 70.6684C337.022 70.5953 337.314 70.4948 337.57 70.3669C337.826 70.2207 338.027 70.038 338.173 69.8187C338.337 69.5994 338.42 69.3527 338.42 69.0786C338.401 68.5669 338.228 68.1375 337.899 67.7903C337.57 67.4249 337.14 67.1051 336.611 66.831C336.099 66.5386 335.542 66.2553 334.938 65.9812C334.354 65.6889 333.796 65.3599 333.266 64.9945C332.755 64.6107 332.325 64.163 331.978 63.6514C331.631 63.1214 331.457 62.4727 331.457 61.7052C331.457 61.157 331.594 60.6728 331.869 60.2525C332.161 59.8139 332.526 59.4576 332.965 59.1835C333.422 58.8911 333.915 58.6718 334.445 58.5257C334.993 58.3612 335.523 58.279 336.035 58.279C336.565 58.279 337.159 58.3246 337.817 58.416C338.474 58.4891 339.233 58.6353 340.092 58.8546L339.708 60.8007ZM351.234 65.5153C351.234 67.2878 351.627 68.6126 352.413 69.4898C353.217 70.3486 354.295 70.778 355.647 70.778C356.981 70.778 358.023 70.3486 358.772 69.4898C359.521 68.6309 359.896 67.3426 359.896 65.6249C359.896 63.7976 359.494 62.4362 358.69 61.5408C357.904 60.6454 356.826 60.1977 355.455 60.1977C354.085 60.1977 353.034 60.6454 352.303 61.5408C351.59 62.4179 351.234 63.7427 351.234 65.5153ZM348.904 65.4879C348.904 64.0991 349.124 62.9478 349.562 62.0342C350.001 61.1022 350.558 60.3621 351.234 59.8139C351.91 59.2475 352.632 58.8546 353.4 58.6353C354.185 58.3977 354.925 58.279 355.62 58.279C356.278 58.279 356.99 58.3886 357.758 58.6079C358.544 58.8089 359.265 59.1835 359.923 59.7317C360.581 60.2616 361.129 60.9834 361.568 61.8971C362.006 62.7925 362.226 63.9346 362.226 65.3234C362.226 66.767 361.997 67.9639 361.54 68.9141C361.102 69.8644 360.544 70.6227 359.868 71.1892C359.192 71.7374 358.461 72.1211 357.676 72.3404C356.89 72.578 356.159 72.6968 355.483 72.6968C354.788 72.6968 354.057 72.5871 353.29 72.3678C352.522 72.1486 351.81 71.7739 351.152 71.244C350.512 70.6958 349.973 69.9557 349.535 69.0238C349.114 68.0918 348.904 66.9132 348.904 65.4879ZM373.525 70.8329H373.47C373.305 70.9608 373.068 71.1344 372.757 71.3537C372.446 71.5547 372.09 71.7557 371.688 71.9567C371.286 72.1577 370.838 72.3313 370.345 72.4775C369.87 72.6237 369.386 72.6968 368.892 72.6968C368.216 72.6968 367.641 72.6054 367.165 72.4227C366.69 72.2582 366.307 71.975 366.014 71.5729C365.722 71.1709 365.512 70.641 365.384 69.9831C365.256 69.3253 365.192 68.503 365.192 67.5162V58.5531H367.385V67.1873C367.385 67.7355 367.394 68.2289 367.412 68.6675C367.43 69.106 367.494 69.4806 367.604 69.7913C367.714 70.1019 367.887 70.3486 368.125 70.5313C368.381 70.6958 368.737 70.778 369.194 70.778C369.669 70.778 370.162 70.6775 370.674 70.4765C371.186 70.2755 371.652 70.0471 372.072 69.7913C372.565 69.4989 373.05 69.17 373.525 68.8045V58.5531H375.717V70.5588C375.736 71.2166 375.781 71.8105 375.855 72.3404L373.689 72.5597L373.525 70.8329ZM382.772 54.4415V58.5531H386.746V60.3347H382.772V67.6533C382.772 68.2563 382.781 68.7588 382.799 69.1608C382.836 69.5629 382.9 69.8826 382.991 70.1202C383.083 70.3577 383.211 70.5313 383.375 70.641C383.539 70.7324 383.75 70.778 384.005 70.778C384.7 70.7598 385.504 70.5039 386.418 70.0106L387.075 71.6826C386.472 72.0846 385.906 72.3496 385.376 72.4775C384.864 72.6237 384.353 72.6968 383.841 72.6968C382.635 72.6968 381.785 72.3587 381.292 71.6826C380.817 70.9882 380.579 69.8461 380.579 68.2563V60.3347H378.057V58.5531H380.579V54.7156L382.772 54.4415ZM395.539 51.8101L397.732 51.5635V60.2799C398.28 59.9144 398.819 59.5947 399.349 59.3206C399.897 59.0465 400.454 58.8089 401.021 58.6079C401.587 58.3886 402.136 58.279 402.666 58.279C403.415 58.279 404.036 58.3703 404.529 58.5531C405.041 58.7175 405.452 59.0008 405.763 59.4028C406.074 59.8048 406.293 60.3347 406.421 60.9926C406.567 61.6504 406.64 62.4727 406.64 63.4595V72.3404H404.447V63.7062C404.447 63.158 404.438 62.6737 404.42 62.2535C404.402 61.8149 404.319 61.4494 404.173 61.157C404.045 60.8464 403.835 60.6088 403.543 60.4444C403.269 60.2799 402.876 60.1977 402.364 60.1977C401.889 60.1977 401.377 60.3073 400.829 60.5266C400.281 60.7276 399.76 60.9652 399.267 61.2393C398.773 61.5134 398.262 61.8332 397.732 62.1986V72.3404H395.539V51.8101ZM420.562 72.0115C420.141 72.1394 419.703 72.2491 419.246 72.3404C418.807 72.4318 418.314 72.514 417.766 72.5871C417.236 72.6602 416.679 72.6968 416.094 72.6968C415.18 72.6968 414.33 72.5688 413.545 72.313C412.759 72.0572 412.074 71.646 411.489 71.0796C410.904 70.5131 410.438 69.7821 410.091 68.8867C409.762 67.9731 409.598 66.8584 409.598 65.5427C409.598 64.3549 409.762 63.3133 410.091 62.4179C410.42 61.5042 410.868 60.7459 411.434 60.1429C412.019 59.5216 412.695 59.0556 413.462 58.7449C414.248 58.4343 415.098 58.279 416.012 58.279C416.907 58.279 417.684 58.4526 418.341 58.7998C418.999 59.147 419.538 59.6221 419.959 60.2251C420.397 60.8098 420.717 61.5042 420.918 62.3083C421.137 63.094 421.247 63.9255 421.247 64.8026L420.836 66.0087H411.982C411.982 66.5751 412.055 67.1416 412.202 67.7081C412.348 68.2746 412.594 68.7862 412.942 69.2431C413.307 69.6999 413.773 70.0745 414.34 70.3669C414.924 70.641 415.646 70.778 416.505 70.778C417.053 70.778 417.556 70.7506 418.013 70.6958C418.469 70.6227 418.862 70.5496 419.191 70.4765C419.538 70.3852 419.858 70.2847 420.151 70.175L420.562 72.0115ZM418.972 64.2544C418.972 64.1265 418.944 63.8432 418.89 63.4047C418.835 62.9661 418.707 62.5093 418.506 62.0342C418.305 61.5591 417.994 61.1388 417.574 60.7733C417.154 60.3896 416.596 60.1977 415.902 60.1977C415.134 60.1977 414.504 60.3621 414.011 60.6911C413.517 61.0017 413.124 61.3763 412.832 61.8149C412.54 62.2535 412.339 62.7012 412.229 63.158C412.119 63.6148 412.065 63.9803 412.065 64.2544H418.972ZM424.121 60.7733C424.121 60.353 424.075 59.6952 423.984 58.7998L426.012 58.5257L426.232 60.5266H426.259C426.588 60.1063 426.908 59.7408 427.219 59.4302C427.529 59.1195 427.849 58.8546 428.178 58.6353C428.525 58.3977 428.854 58.279 429.165 58.279C429.585 58.2607 430.17 58.3064 430.919 58.416L430.426 60.5266C429.822 60.417 429.402 60.3713 429.165 60.3896C428.854 60.3896 428.525 60.5357 428.178 60.8281C427.831 61.1205 427.529 61.4311 427.273 61.7601C426.944 62.1621 426.625 62.6189 426.314 63.1306V72.3404H424.121V60.7733ZM442.987 72.0115C442.566 72.1394 442.128 72.2491 441.671 72.3404C441.232 72.4318 440.739 72.514 440.191 72.5871C439.661 72.6602 439.104 72.6968 438.519 72.6968C437.605 72.6968 436.755 72.5688 435.97 72.313C435.184 72.0572 434.499 71.646 433.914 71.0796C433.329 70.5131 432.863 69.7821 432.516 68.8867C432.187 67.9731 432.023 66.8584 432.023 65.5427C432.023 64.3549 432.187 63.3133 432.516 62.4179C432.845 61.5042 433.293 60.7459 433.859 60.1429C434.444 59.5216 435.12 59.0556 435.887 58.7449C436.673 58.4343 437.523 58.279 438.437 58.279C439.332 58.279 440.109 58.4526 440.766 58.7998C441.424 59.147 441.963 59.6221 442.384 60.2251C442.822 60.8098 443.142 61.5042 443.343 62.3083C443.562 63.094 443.672 63.9255 443.672 64.8026L443.261 66.0087H434.407C434.407 66.5751 434.48 67.1416 434.627 67.7081C434.773 68.2746 435.019 68.7862 435.367 69.2431C435.732 69.6999 436.198 70.0745 436.765 70.3669C437.349 70.641 438.071 70.778 438.93 70.778C439.478 70.778 439.981 70.7506 440.438 70.6958C440.894 70.6227 441.287 70.5496 441.616 70.4765C441.963 70.3852 442.283 70.2847 442.576 70.175L442.987 72.0115ZM441.397 64.2544C441.397 64.1265 441.369 63.8432 441.315 63.4047C441.26 62.9661 441.132 62.5093 440.931 62.0342C440.73 61.5591 440.419 61.1388 439.999 60.7733C439.579 60.3896 439.021 60.1977 438.327 60.1977C437.559 60.1977 436.929 60.3621 436.436 60.6911C435.942 61.0017 435.549 61.3763 435.257 61.8149C434.965 62.2535 434.764 62.7012 434.654 63.158C434.544 63.6148 434.49 63.9803 434.49 64.2544H441.397ZM446.546 52.3858L449.342 52.0842L448.876 67.3518H447.094L446.546 52.3858ZM446.299 70.7232C446.299 70.2847 446.455 69.91 446.765 69.5994C447.076 69.2705 447.46 69.106 447.917 69.106C448.392 69.106 448.794 69.2705 449.123 69.5994C449.452 69.91 449.616 70.2847 449.616 70.7232C449.616 71.1801 449.452 71.5638 449.123 71.8744C448.794 72.1851 448.392 72.3404 447.917 72.3404C447.46 72.3404 447.076 72.1851 446.765 71.8744C446.455 71.5638 446.299 71.1801 446.299 70.7232Z" fill="white"/>
<path d="M475 52.4878C475 41.6339 466.201 32.8351 455.347 32.8351V32.8351V61.2797H475V52.4878Z" fill="#2FCC59" stroke="#2FCC59" stroke-width="0.805851"/>
<rect width="19.6526" height="4.12144" transform="matrix(-1 0 0 1 475 61.2797)" fill="#2FCC59" stroke="#2FCC59" stroke-width="0.805851"/>
<path d="M475 74.1931C475 85.047 466.201 93.8457 455.347 93.8457V93.8457V65.4012H475V74.1931Z" fill="#2FCC59" stroke="#2FCC59" stroke-width="0.805851"/>
</g>
<defs>
<clipPath id="clip0_0_1">
<rect width="489" height="200" fill="white"/>
</clipPath>
<clipPath id="clip1_0_1">
<rect width="204.043" height="203.606" fill="white" transform="translate(12 45.8996) rotate(-13)"/>
</clipPath>
</defs>
</svg>
