<svg width="1440" height="470" viewBox="0 0 1440 470" fill="none" xmlns="http://www.w3.org/2000/svg">
<path d="M1086.96 232.351C952.637 226.626 821.172 195.551 687.005 187.377C552.837 179.202 407.708 197.834 308.253 276.565C270.458 306.482 241.265 343.547 208.646 377.766C176.065 412.018 138.308 444.549 90.693 460.666C55.8285 472.481 14.6457 473.573 -19.1149 461.03V391.169C2.61826 398.152 -139.463 -157.713 -116.474 -159.368C-62.2744 -163.273 -30.027 -187.414 12.5259 -216.868C55.0788 -246.321 111.783 -107.646 154.526 -136.868C247.396 -200.309 295.262 -93.9779 413.367 -94.5074C528.313 -95.0369 640.938 -63.5315 755.884 -63.002C860.439 -62.5055 964.842 -88.749 1053.53 -136.868L1743.89 49.998C1582.96 139.385 1277.76 240.492 1086.96 232.351Z" fill="#2F2F2F" fill-opacity="0.79"/>
<path d="M654.548 99.9364C536.443 100.466 418.947 136.141 326.077 199.582C283.295 228.804 245.881 263.553 203.328 293.006C160.775 322.46 111.219 347.049 57.0189 350.954C34.0677 352.608 10.2411 349.762 -11.4921 342.746L-128 -185.418C-113.004 -177.046 -97.4746 -169.434 -81.1842 -163.113C-37.9461 -146.368 12.143 -139.252 57.0177 -152.391C102.768 -165.761 138 -134.95 173.816 -163.113C262.881 -233.14 422.919 -135.877 538.816 -163.113L1375 -17C1286.32 31.0855 1101.62 131.905 997.065 131.442C882.119 130.912 769.494 99.4069 654.548 99.9364Z" fill="#26B33E"/>
<path d="M185.063 249.321C140.178 264.134 90.0761 256.112 46.8274 237.232C30.533 230.105 15 221.523 0 212.083V5.16544e-06H615C499.074 30.7081 390.266 87.3483 301.18 166.301C265.355 198.054 230.825 234.247 185.063 249.321Z" fill="#146622"/>
<path d="M76.648 124V79.2H100.584C106.771 79.2 111.336 80.3093 114.28 82.528C117.224 84.704 118.696 87.4987 118.696 90.912C118.696 93.1733 118.056 95.2 116.776 96.992C115.539 98.7413 113.725 100.128 111.336 101.152C108.947 102.176 106.003 102.688 102.504 102.688L103.784 99.232C107.283 99.232 110.291 99.7227 112.808 100.704C115.368 101.685 117.331 103.115 118.696 104.992C120.104 106.827 120.808 109.045 120.808 111.648C120.808 115.531 119.187 118.56 115.944 120.736C112.744 122.912 108.051 124 101.864 124H76.648ZM91.496 113.44H100.584C102.248 113.44 103.485 113.141 104.296 112.544C105.149 111.947 105.576 111.072 105.576 109.92C105.576 108.768 105.149 107.893 104.296 107.296C103.485 106.699 102.248 106.4 100.584 106.4H90.472V96.416H98.536C100.243 96.416 101.48 96.1387 102.248 95.584C103.059 94.9867 103.464 94.1547 103.464 93.088C103.464 91.9787 103.059 91.1467 102.248 90.592C101.48 90.0373 100.243 89.76 98.536 89.76H91.496V113.44ZM129.54 124V76.512H144.004V124H129.54ZM172.751 124.64C168.783 124.64 165.263 123.872 162.191 122.336C159.162 120.757 156.772 118.603 155.023 115.872C153.274 113.141 152.399 110.005 152.399 106.464C152.399 102.923 153.274 99.7867 155.023 97.056C156.772 94.3253 159.162 92.192 162.191 90.656C165.263 89.12 168.783 88.352 172.751 88.352C176.719 88.352 180.239 89.12 183.311 90.656C186.383 92.192 188.772 94.3253 190.479 97.056C192.228 99.7867 193.103 102.923 193.103 106.464C193.103 110.005 192.228 113.141 190.479 115.872C188.772 118.603 186.383 120.757 183.311 122.336C180.239 123.872 176.719 124.64 172.751 124.64ZM172.751 113.376C173.818 113.376 174.778 113.12 175.631 112.608C176.484 112.096 177.167 111.328 177.679 110.304C178.191 109.237 178.447 107.957 178.447 106.464C178.447 104.928 178.191 103.669 177.679 102.688C177.167 101.664 176.484 100.896 175.631 100.384C174.778 99.872 173.818 99.616 172.751 99.616C171.684 99.616 170.724 99.872 169.871 100.384C169.018 100.896 168.335 101.664 167.823 102.688C167.311 103.669 167.055 104.928 167.055 106.464C167.055 107.957 167.311 109.237 167.823 110.304C168.335 111.328 169.018 112.096 169.871 112.608C170.724 113.12 171.684 113.376 172.751 113.376ZM219.262 137.056C215.806 137.056 212.563 136.693 209.534 135.968C206.505 135.243 203.902 134.155 201.726 132.704L206.59 122.848C207.955 123.915 209.683 124.747 211.774 125.344C213.907 125.984 215.913 126.304 217.79 126.304C220.777 126.304 222.91 125.664 224.19 124.384C225.47 123.147 226.11 121.355 226.11 119.008V116.064L226.75 105.184L226.814 94.304V88.992H240.574V117.024C240.574 123.808 238.697 128.843 234.942 132.128C231.187 135.413 225.961 137.056 219.262 137.056ZM216.446 122.08C213.502 122.08 210.75 121.397 208.19 120.032C205.63 118.624 203.561 116.661 201.982 114.144C200.403 111.627 199.614 108.64 199.614 105.184C199.614 101.728 200.403 98.7413 201.982 96.224C203.561 93.7067 205.63 91.7653 208.19 90.4C210.75 89.0347 213.502 88.352 216.446 88.352C219.475 88.352 221.95 88.9493 223.87 90.144C225.833 91.3387 227.283 93.1947 228.222 95.712C229.161 98.1867 229.63 101.344 229.63 105.184C229.63 109.024 229.161 112.203 228.222 114.72C227.283 117.195 225.833 119.051 223.87 120.288C221.95 121.483 219.475 122.08 216.446 122.08ZM220.286 110.816C221.438 110.816 222.462 110.581 223.358 110.112C224.254 109.643 224.958 108.981 225.47 108.128C225.982 107.275 226.238 106.293 226.238 105.184C226.238 104.032 225.982 103.051 225.47 102.24C224.958 101.387 224.254 100.747 223.358 100.32C222.462 99.8507 221.438 99.616 220.286 99.616C219.177 99.616 218.153 99.8507 217.214 100.32C216.318 100.747 215.593 101.387 215.038 102.24C214.526 103.051 214.27 104.032 214.27 105.184C214.27 106.293 214.526 107.275 215.038 108.128C215.593 108.981 216.318 109.643 217.214 110.112C218.153 110.581 219.177 110.816 220.286 110.816Z" fill="white"/>
</svg>
