<svg width="1440" height="499" viewBox="0 0 1440 499" fill="none" xmlns="http://www.w3.org/2000/svg">
<mask id="mask0_56_64" style="mask-type:alpha" maskUnits="userSpaceOnUse" x="0" y="0" width="1440" height="499">
<rect width="1440" height="499" fill="#D9D9D9"/>
</mask>
<g mask="url(#mask0_56_64)">
<path opacity="0.4" d="M0 -177V498.787C96 415.052 192 363.252 288 343.387C384 323.522 480 320.126 576 333.199C672 346.272 768 335.708 864 301.509C960 267.31 1056 215.33 1152 145.57C1248 75.81 1344 54.093 1440 80.419V-177H0Z" fill="url(#paint0_linear_56_64)"/>
<path opacity="0.4" d="M0 -177V471.675C96 466.14 192 452.119 288 429.612C384 407.105 480 376.863 576 338.887C672 300.911 768 282.92 864 284.914C960 286.908 1056 250.264 1152 174.981C1248 99.6983 1344 98.9526 1440 172.744V-177H0Z" fill="url(#paint1_linear_56_64)"/>
<path opacity="0.4" d="M0 -177V427.447C96 430.778 192 422.169 288 401.622C384 381.075 480 342.061 576 284.582C672 227.103 768 226.847 864 283.815C960 340.783 1056 311.987 1152 197.428C1248 82.8687 1344 78.6807 1440 184.864V-177H0Z" fill="url(#paint2_linear_56_64)"/>
<path opacity="0.4" d="M0 -177V415.095C96 415.374 192 411.226 288 402.653C384 394.08 480 366.111 576 318.746C672 271.381 768 238.559 864 220.279C960 201.999 1056 196.835 1152 204.788C1248 212.741 1344 172.312 1440 83.501V-177H0Z" fill="url(#paint3_linear_56_64)"/>
<path opacity="0.4" d="M0 -177V461.186C96 428.444 192 403.155 288 385.319C384 367.483 480 351.489 576 337.337C672 323.185 768 299.305 864 265.698C960 232.091 1056 207.955 1152 193.291C1248 178.627 1344 167.585 1440 160.164V-177H0Z" fill="url(#paint4_linear_56_64)"/>
<path d="M138.784 234L158.368 189.2H173.216L192.8 234H177.184L162.72 196.368H168.608L154.144 234H138.784ZM150.432 226.192L154.272 215.312H174.88L178.72 226.192H150.432ZM199.051 234V189.2H221.131C226.123 189.2 230.517 190.117 234.315 191.952C238.112 193.744 241.077 196.304 243.211 199.632C245.344 202.96 246.411 206.928 246.411 211.536C246.411 216.187 245.344 220.197 243.211 223.568C241.077 226.896 238.112 229.477 234.315 231.312C230.517 233.104 226.123 234 221.131 234H199.051ZM214.155 222.224H220.491C222.624 222.224 224.48 221.819 226.059 221.008C227.68 220.197 228.939 219.003 229.835 217.424C230.731 215.803 231.179 213.84 231.179 211.536C231.179 209.275 230.731 207.355 229.835 205.776C228.939 204.197 227.68 203.003 226.059 202.192C224.48 201.381 222.624 200.976 220.491 200.976H214.155V222.224ZM255.766 234V189.2H268.182L286.102 218.448H279.574L296.982 189.2H309.398L309.526 234H295.766L295.638 209.936H297.814L285.91 229.968H279.254L266.838 209.936H269.526V234H255.766ZM320.668 234V189.2H335.772V234H320.668ZM346.883 234V189.2H359.299L382.083 216.464H376.323V189.2H391.043V234H378.627L355.843 206.736H361.603V234H346.883Z" fill="white"/>
</g>
<defs>
<linearGradient id="paint0_linear_56_64" x1="0" y1="-177" x2="1440" y2="-177" gradientUnits="userSpaceOnUse">
<stop stop-color="#146622"/>
<stop offset="0.26875" stop-color="#26B33E"/>
<stop offset="0.544792" stop-color="#177226"/>
<stop offset="1" stop-color="#23A539"/>
</linearGradient>
<linearGradient id="paint1_linear_56_64" x1="0" y1="-177" x2="1440" y2="-177" gradientUnits="userSpaceOnUse">
<stop stop-color="#146622"/>
<stop offset="0.26875" stop-color="#26B33E"/>
<stop offset="0.544792" stop-color="#177226"/>
<stop offset="1" stop-color="#23A539"/>
</linearGradient>
<linearGradient id="paint2_linear_56_64" x1="2.47425e-06" y1="3" x2="1440" y2="428" gradientUnits="userSpaceOnUse">
<stop stop-color="#146622"/>
<stop offset="0.26875" stop-color="#26B33E"/>
<stop offset="0.544792" stop-color="#177226"/>
<stop offset="1" stop-color="#23A539"/>
</linearGradient>
<linearGradient id="paint3_linear_56_64" x1="-2.20597e-06" y1="-0.999994" x2="1440" y2="415" gradientUnits="userSpaceOnUse">
<stop stop-color="#146622"/>
<stop offset="0.26875" stop-color="#26B33E"/>
<stop offset="0.544792" stop-color="#177226"/>
<stop offset="1" stop-color="#23A539"/>
</linearGradient>
<linearGradient id="paint4_linear_56_64" x1="-9.61486e-07" y1="5.50001" x2="1440" y2="461" gradientUnits="userSpaceOnUse">
<stop stop-color="#146622"/>
<stop offset="0.26875" stop-color="#26B33E"/>
<stop offset="0.544792" stop-color="#177226"/>
<stop offset="1" stop-color="#23A539"/>
</linearGradient>
</defs>
</svg>
