<svg width="1440" height="499" viewBox="0 0 1440 499" fill="none" xmlns="http://www.w3.org/2000/svg">
<mask id="mask0_56_54" style="mask-type:alpha" maskUnits="userSpaceOnUse" x="0" y="0" width="1440" height="499">
<rect width="1440" height="499" fill="#D9D9D9"/>
</mask>
<g mask="url(#mask0_56_54)">
<path opacity="0.4" d="M0 -177V498.787C96 415.052 192 363.252 288 343.387C384 323.522 480 320.126 576 333.199C672 346.272 768 335.708 864 301.509C960 267.31 1056 215.33 1152 145.57C1248 75.81 1344 54.093 1440 80.419V-177H0Z" fill="url(#paint0_linear_56_54)"/>
<path opacity="0.4" d="M0 -177V471.675C96 466.14 192 452.119 288 429.612C384 407.105 480 376.863 576 338.887C672 300.911 768 282.92 864 284.914C960 286.908 1056 250.264 1152 174.981C1248 99.6983 1344 98.9526 1440 172.744V-177H0Z" fill="url(#paint1_linear_56_54)"/>
<path opacity="0.4" d="M0 -177V427.447C96 430.778 192 422.169 288 401.622C384 381.075 480 342.061 576 284.582C672 227.103 768 226.847 864 283.815C960 340.783 1056 311.987 1152 197.428C1248 82.8687 1344 78.6807 1440 184.864V-177H0Z" fill="url(#paint2_linear_56_54)"/>
<path opacity="0.4" d="M0 -177V415.095C96 415.374 192 411.226 288 402.653C384 394.08 480 366.111 576 318.746C672 271.381 768 238.559 864 220.279C960 201.999 1056 196.835 1152 204.788C1248 212.741 1344 172.312 1440 83.501V-177H0Z" fill="url(#paint3_linear_56_54)"/>
<path opacity="0.4" d="M0 -177V461.186C96 428.444 192 403.155 288 385.319C384 367.483 480 351.489 576 337.337C672 323.185 768 299.305 864 265.698C960 232.091 1056 207.955 1152 193.291C1248 178.627 1344 167.585 1440 160.164V-177H0Z" fill="url(#paint4_linear_56_54)"/>
<path d="M138.784 234L158.368 189.2H173.216L192.8 234H177.184L162.72 196.368H168.608L154.144 234H138.784ZM150.432 226.192L154.272 215.312H174.88L178.72 226.192H150.432ZM199.051 234V189.2H214.155V222.288H234.379V234H199.051ZM263.518 235.024C256.649 235.024 251.294 233.168 247.454 229.456C243.614 225.744 241.694 220.539 241.694 213.84V189.2H256.798V213.392C256.798 216.805 257.417 219.237 258.654 220.688C259.891 222.096 261.555 222.8 263.646 222.8C265.779 222.8 267.443 222.096 268.638 220.688C269.875 219.237 270.494 216.805 270.494 213.392V189.2H285.342V213.84C285.342 220.539 283.422 225.744 279.582 229.456C275.742 233.168 270.387 235.024 263.518 235.024ZM296.106 234V189.2H308.522L326.442 218.448H319.914L337.322 189.2H349.738L349.866 234H336.106L335.978 209.936H338.154L326.25 229.968H319.594L307.178 209.936H309.866V234H296.106ZM361.008 234V189.2H373.424L396.208 216.464H390.448V189.2H405.168V234H392.752L369.968 206.736H375.728V234H361.008ZM416.286 234V189.2H431.39V234H416.286Z" fill="white"/>
</g>
<defs>
<linearGradient id="paint0_linear_56_54" x1="0" y1="-177" x2="1440" y2="-177" gradientUnits="userSpaceOnUse">
<stop stop-color="#146622"/>
<stop offset="0.26875" stop-color="#26B33E"/>
<stop offset="0.544792" stop-color="#177226"/>
<stop offset="1" stop-color="#23A539"/>
</linearGradient>
<linearGradient id="paint1_linear_56_54" x1="0" y1="-177" x2="1440" y2="-177" gradientUnits="userSpaceOnUse">
<stop stop-color="#146622"/>
<stop offset="0.26875" stop-color="#26B33E"/>
<stop offset="0.544792" stop-color="#177226"/>
<stop offset="1" stop-color="#23A539"/>
</linearGradient>
<linearGradient id="paint2_linear_56_54" x1="2.47425e-06" y1="3" x2="1440" y2="428" gradientUnits="userSpaceOnUse">
<stop stop-color="#146622"/>
<stop offset="0.26875" stop-color="#26B33E"/>
<stop offset="0.544792" stop-color="#177226"/>
<stop offset="1" stop-color="#23A539"/>
</linearGradient>
<linearGradient id="paint3_linear_56_54" x1="-2.20597e-06" y1="-0.999994" x2="1440" y2="415" gradientUnits="userSpaceOnUse">
<stop stop-color="#146622"/>
<stop offset="0.26875" stop-color="#26B33E"/>
<stop offset="0.544792" stop-color="#177226"/>
<stop offset="1" stop-color="#23A539"/>
</linearGradient>
<linearGradient id="paint4_linear_56_54" x1="-9.61486e-07" y1="5.50001" x2="1440" y2="461" gradientUnits="userSpaceOnUse">
<stop stop-color="#146622"/>
<stop offset="0.26875" stop-color="#26B33E"/>
<stop offset="0.544792" stop-color="#177226"/>
<stop offset="1" stop-color="#23A539"/>
</linearGradient>
</defs>
</svg>
