<svg width="1440" height="499" viewBox="0 0 1440 499" fill="none" xmlns="http://www.w3.org/2000/svg">
    <mask id="mask0_56_74" style="mask-type:alpha" maskUnits="userSpaceOnUse" x="0" y="0" width="1440" height="499">
    <rect width="1440" height="499" fill="#D9D9D9"/>
    </mask>
    <g mask="url(#mask0_56_74)">
    <path opacity="0.4" d="M0 -177V498.787C96 415.052 192 363.252 288 343.387C384 323.522 480 320.126 576 333.199C672 346.272 768 335.708 864 301.509C960 267.31 1056 215.33 1152 145.57C1248 75.81 1344 54.093 1440 80.419V-177H0Z" fill="url(#paint0_linear_56_74)"/>
    <path opacity="0.4" d="M0 -177V471.675C96 466.14 192 452.119 288 429.612C384 407.105 480 376.863 576 338.887C672 300.911 768 282.92 864 284.914C960 286.908 1056 250.264 1152 174.981C1248 99.6983 1344 98.9526 1440 172.744V-177H0Z" fill="url(#paint1_linear_56_74)"/>
    <path opacity="0.4" d="M0 -177V427.447C96 430.778 192 422.169 288 401.622C384 381.075 480 342.061 576 284.582C672 227.103 768 226.847 864 283.815C960 340.783 1056 311.987 1152 197.428C1248 82.8687 1344 78.6807 1440 184.864V-177H0Z" fill="url(#paint2_linear_56_74)"/>
    <path opacity="0.4" d="M0 -177V415.095C96 415.374 192 411.226 288 402.653C384 394.08 480 366.111 576 318.746C672 271.381 768 238.559 864 220.279C960 201.999 1056 196.835 1152 204.788C1248 212.741 1344 172.312 1440 83.501V-177H0Z" fill="url(#paint3_linear_56_74)"/>
    <path opacity="0.4" d="M0 -177V461.186C96 428.444 192 403.155 288 385.319C384 367.483 480 351.489 576 337.337C672 323.185 768 299.305 864 265.698C960 232.091 1056 207.955 1152 193.291C1248 178.627 1344 167.585 1440 160.164V-177H0Z" fill="url(#paint4_linear_56_74)"/>
    <path d="M138.784 234L158.368 189.2H173.216L192.8 234H177.184L162.72 196.368H168.608L154.144 234H138.784ZM150.432 226.192L154.272 215.312H174.88L178.72 226.192H150.432ZM199.051 234V189.2H220.619C224.8 189.2 228.405 189.883 231.435 191.248C234.507 192.613 236.875 194.576 238.539 197.136C240.203 199.653 241.035 202.64 241.035 206.096C241.035 209.552 240.203 212.539 238.539 215.056C236.875 217.573 234.507 219.536 231.435 220.944C228.405 222.309 224.8 222.992 220.619 222.992H207.435L214.155 216.528V234H199.051ZM214.155 218.192L207.435 211.344H219.659C221.749 211.344 223.285 210.875 224.267 209.936C225.291 208.997 225.803 207.717 225.803 206.096C225.803 204.475 225.291 203.195 224.267 202.256C223.285 201.317 221.749 200.848 219.659 200.848H207.435L214.155 194V218.192ZM249.828 234V189.2H271.396C275.577 189.2 279.183 189.883 282.212 191.248C285.284 192.613 287.652 194.576 289.316 197.136C290.98 199.653 291.812 202.64 291.812 206.096C291.812 209.552 290.98 212.539 289.316 215.056C287.652 217.573 285.284 219.536 282.212 220.944C279.183 222.309 275.577 222.992 271.396 222.992H258.212L264.932 216.528V234H249.828ZM264.932 218.192L258.212 211.344H270.436C272.527 211.344 274.063 210.875 275.044 209.936C276.068 208.997 276.58 207.717 276.58 206.096C276.58 204.475 276.068 203.195 275.044 202.256C274.063 201.317 272.527 200.848 270.436 200.848H258.212L264.932 194V218.192ZM317.935 235.024C314.18 235.024 310.553 234.597 307.055 233.744C303.556 232.891 300.676 231.781 298.415 230.416L303.279 219.408C305.412 220.645 307.78 221.648 310.383 222.416C313.028 223.141 315.588 223.504 318.063 223.504C319.513 223.504 320.644 223.419 321.455 223.248C322.308 223.035 322.927 222.757 323.311 222.416C323.695 222.032 323.887 221.584 323.887 221.072C323.887 220.261 323.439 219.621 322.543 219.152C321.647 218.683 320.452 218.299 318.959 218C317.508 217.659 315.908 217.317 314.159 216.976C312.409 216.592 310.639 216.101 308.847 215.504C307.097 214.907 305.476 214.117 303.983 213.136C302.532 212.155 301.359 210.875 300.463 209.296C299.567 207.675 299.119 205.669 299.119 203.28C299.119 200.507 299.887 197.989 301.423 195.728C303.001 193.424 305.327 191.589 308.399 190.224C311.513 188.859 315.375 188.176 319.983 188.176C323.012 188.176 325.999 188.496 328.943 189.136C331.887 189.776 334.532 190.757 336.879 192.08L332.335 203.024C330.116 201.915 327.961 201.083 325.871 200.528C323.823 199.973 321.817 199.696 319.855 199.696C318.404 199.696 317.252 199.824 316.399 200.08C315.545 200.336 314.927 200.677 314.543 201.104C314.201 201.531 314.031 202 314.031 202.512C314.031 203.28 314.479 203.899 315.375 204.368C316.271 204.795 317.444 205.157 318.895 205.456C320.388 205.755 322.009 206.075 323.759 206.416C325.551 206.757 327.321 207.227 329.071 207.824C330.82 208.421 332.42 209.211 333.871 210.192C335.364 211.173 336.559 212.453 337.455 214.032C338.351 215.611 338.799 217.573 338.799 219.92C338.799 222.651 338.009 225.168 336.431 227.472C334.895 229.733 332.591 231.568 329.519 232.976C326.447 234.341 322.585 235.024 317.935 235.024Z" fill="white"/>
    </g>
    <defs>
    <linearGradient id="paint0_linear_56_74" x1="0" y1="-177" x2="1440" y2="-177" gradientUnits="userSpaceOnUse">
    <stop stop-color="#146622"/>
    <stop offset="0.26875" stop-color="#26B33E"/>
    <stop offset="0.544792" stop-color="#177226"/>
    <stop offset="1" stop-color="#23A539"/>
    </linearGradient>
    <linearGradient id="paint1_linear_56_74" x1="0" y1="-177" x2="1440" y2="-177" gradientUnits="userSpaceOnUse">
    <stop stop-color="#146622"/>
    <stop offset="0.26875" stop-color="#26B33E"/>
    <stop offset="0.544792" stop-color="#177226"/>
    <stop offset="1" stop-color="#23A539"/>
    </linearGradient>
    <linearGradient id="paint2_linear_56_74" x1="2.47425e-06" y1="3" x2="1440" y2="428" gradientUnits="userSpaceOnUse">
    <stop stop-color="#146622"/>
    <stop offset="0.26875" stop-color="#26B33E"/>
    <stop offset="0.544792" stop-color="#177226"/>
    <stop offset="1" stop-color="#23A539"/>
    </linearGradient>
    <linearGradient id="paint3_linear_56_74" x1="-2.20597e-06" y1="-0.999994" x2="1440" y2="415" gradientUnits="userSpaceOnUse">
    <stop stop-color="#146622"/>
    <stop offset="0.26875" stop-color="#26B33E"/>
    <stop offset="0.544792" stop-color="#177226"/>
    <stop offset="1" stop-color="#23A539"/>
    </linearGradient>
    <linearGradient id="paint4_linear_56_74" x1="-9.61486e-07" y1="5.50001" x2="1440" y2="461" gradientUnits="userSpaceOnUse">
    <stop stop-color="#146622"/>
    <stop offset="0.26875" stop-color="#26B33E"/>
    <stop offset="0.544792" stop-color="#177226"/>
    <stop offset="1" stop-color="#23A539"/>
    </linearGradient>
    </defs>
    </svg>
    