<svg xmlns="http://www.w3.org/2000/svg" version="1.1" xmlns:xlink="http://www.w3.org/1999/xlink" xmlns:svgjs="http://svgjs.dev/svgjs" viewBox="0 0 800 800"><defs><linearGradient x1="50%" y1="0%" x2="50%" y2="100%" id="ccchaos-grad"><stop stop-color="hsl(206, 75%, 49%)" stop-opacity="1" offset="0%"></stop><stop stop-color="hsl(331, 90%, 56%)" stop-opacity="1" offset="100%"></stop></linearGradient></defs><g stroke-width="2" stroke="url(#ccchaos-grad)" fill="none" stroke-linecap="round"><path d="M409.19 103.18C419.28 101.71 429.58 101.12 440.07 101.39 450.58 102.08 461.29 103.64 472.14 106.04 482.98 108.82 493.93 112.38 504.88 116.65 515.74 121.2 526.5 126.37 536.99 132.08 547.21 137.94 556.97 144.22 566.07 150.87 574.62 157.52 582.27 164.44 588.82 171.57 594.58 178.59 599.07 185.76 602.21 193.06 604.57 200.17 605.68 207.38 605.66 214.67 605.36 221.74 604.44 228.91 603.27 236.17 602.82 243.23 602.93 250.41 604.06 257.71 606.99 264.85 611.61 272.16 618.1 279.64 626.78 286.99 637.22 294.56 649.11 302.36 662.12 310.07 675.42 318.03 688.2 326.26 699.89 334.44 709.45 342.9 716.1 351.66 719.75 360.39 719.71 369.43 715.92 378.78 709.29 388.11 699.87 397.78 688.52 407.76 676.93 417.75 665.82 427.84 656.2 438 649.13 448.17 644.73 458.41 643.13 468.7 644.63 479 648.37 489.34 653.69 499.67 660.45 510 667.26 520.29 673.32 530.5 678.59 540.66 681.85 550.69 682.75 560.5 681.6 570.2 677.81 579.61 671.56 588.66 663.41 597.48 653.36 605.83 641.88 613.61 629.48 621.06 616.45 627.84 603.22 633.86 590.09 639.45 577.33 644.21 565.13 648.07 553.6 651.47 542.81 653.96 532.75 655.54 523.45 656.74 514.76 657.11 506.55 656.7 498.91 656.14 491.52 655.01 484.23 653.41 477.27 652.01 470.2 650.41 462.94 648.77 455.79 647.73 448.32 646.92 440.46 646.46 432.63 646.92 424.36 647.91 415.65 649.48 406.93 652.09 397.76 655.26 388.16 658.93 378.57 663.44 368.81 668.09 358.94 672.71 349.11 677.66 339.22 682.21 329.34 686.18 319.56 689.96 309.85 692.84 300.3 694.72 290.92 696.02 281.78 696.13 272.96 695.04 264.38 693.2 256.21 690.13 248.52 685.91 241.12 680.96 234.24 674.96 227.95 668.03 221.9 660.55 216.4 652.3 211.45 643.43 206.6 634.24 202.18 624.59 198.11 614.61 193.88 604.52 189.83 594.23 185.86 583.83 181.46 573.47 176.98 563.08 172.36 552.72 167.17 542.47 161.81 532.27 156.31 522.16 150.38 512.18 144.46 502.26 138.7 492.42 132.88 482.69 127.51 473.01 122.76 463.38 118.41 453.82 114.93 444.28 112.47 434.75 110.62 425.25 109.83 415.74 110.07 406.23 110.77 396.72 112.29 387.19 114.47 377.65 116.6 368.11 118.99 358.78 121.46 349.68 123.4 340.58 125.24 331.71 126.92 323.11 127.98 314.52 128.99 306.2 130.02 298.19 130.73 290.19 131.74 282.51 133.19 275.18 134.78 267.87 137.09 260.91 140.19 254.32 143.77 247.74 148.28 241.53 153.68 235.68 159.63 229.83 166.41 224.32 173.9 219.16 181.77 213.94 190.17 209.01 198.95 204.38 207.82 199.6 216.89 195.06 226.06 190.73 235.07 186.18 244.07 181.78 253.01 177.51 261.67 172.95 270.26 168.48 278.8 164.08 287.04 159.36 295.27 154.71 303.55 150.13 311.59 145.26 319.75 140.49 328.08 135.89 336.25 131.08 344.66 126.51 353.34 122.25 361.94 117.95 370.87 114.08 380.17 110.73 389.42 107.53 399.09 104.98 409.18 103.18" stroke-dasharray="9 4" transform="rotate(0, 400, 400)" opacity="0.96"></path><path d="M415.57 113.87C425.42 112.41 435.4 111.79 445.48 111.99 455.58 112.59 465.76 114.02 475.98 116.26 486.16 118.86 496.31 122.22 506.33 126.26 516.21 130.59 525.83 135.52 535.05 140.99 543.95 146.61 552.26 152.68 559.83 159.12 566.88 165.58 572.98 172.33 578.02 179.31 582.41 186.21 585.67 193.29 587.77 200.5 589.36 207.55 590 214.72 589.85 221.98 589.74 229.05 589.37 236.22 589.08 243.47 589.73 250.54 591.15 257.72 593.71 265.01 598.03 272.14 603.94 279.42 611.53 286.86 620.97 294.17 631.83 301.67 643.75 309.37 656.39 316.98 668.99 324.82 680.81 332.9 691.39 340.92 699.81 349.2 705.43 357.74 708.27 366.26 707.71 375.06 703.74 384.14 697.25 393.21 688.24 402.58 677.48 412.25 666.5 421.92 655.9 431.66 646.58 441.46 639.51 451.26 634.79 461.11 632.59 470.98 633.25 480.85 636.02 490.72 640.39 500.55 646.3 510.37 652.51 520.11 658.31 529.73 663.7 539.29 667.5 548.67 669.34 557.8 669.49 566.81 667.27 575.49 662.77 583.77 656.47 591.83 648.22 599.41 638.4 606.41 627.49 613.1 615.66 619.13 603.33 624.43 590.79 629.34 578.28 633.47 566.05 636.77 554.21 639.68 542.91 641.77 532.19 643.03 522.07 644 512.52 644.24 503.46 643.8 494.93 643.29 486.74 642.28 478.78 640.89 471.16 639.73 463.58 638.43 455.97 637.11 448.52 636.37 440.9 635.85 433.04 635.66 425.23 636.32 417.12 637.45 408.7 639.08 400.27 641.66 391.5 644.74 382.41 648.24 373.31 652.51 364.13 656.9 354.91 661.23 345.72 665.9 336.53 670.19 327.43 673.96 318.41 677.59 309.52 680.41 300.85 682.33 292.33 683.75 284.09 684.1 276.21 683.34 268.52 681.92 261.26 679.37 254.47 675.73 247.9 671.44 241.82 666.13 236.26 659.93 230.86 653.19 225.92 645.69 221.43 637.55 216.92 629.06 212.73 620.09 208.79 610.74 204.6 601.23 200.48 591.47 196.36 581.55 191.78 571.62 187.07 561.6 182.2 551.57 176.79 541.6 171.23 531.65 165.56 521.75 159.53 511.95 153.57 502.2 147.82 492.53 142.09 482.94 136.85 473.41 132.27 463.93 128.12 454.52 124.86 445.14 122.6 435.81 120.96 426.51 120.36 417.22 120.76 407.96 121.61 398.72 123.23 389.48 125.51 380.27 127.74 371.05 130.2 362.08 132.73 353.36 134.76 344.64 136.66 336.17 138.39 327.97 139.51 319.78 140.52 311.88 141.52 304.28 142.15 296.69 143.01 289.41 144.23 282.46 145.52 275.52 147.44 268.91 150.08 262.66 153.14 256.39 157.06 250.46 161.84 244.88 167.17 239.25 173.32 233.94 180.22 228.95 187.55 223.86 195.47 219.04 203.85 214.47 212.43 209.75 221.29 205.23 230.34 200.9 239.34 196.34 248.4 191.91 257.47 187.6 266.34 183.01 275.17 178.49 283.95 174.05 292.5 169.31 301.02 164.64 309.55 160.06 317.87 155.21 326.26 150.48 334.74 145.92 343.09 141.19 351.6 136.69 360.32 132.52 368.96 128.31 377.86 124.53 387.06 121.26 396.22 118.14 405.72 115.65 415.56 113.87" stroke-dasharray="8 0" transform="rotate(4.04, 400, 400)" opacity="0.96"></path><path d="M420.13 124.55C429.68 123.11 439.27 122.46 448.86 122.6 458.44 123.11 468 124.42 477.46 126.49 486.87 128.91 496.12 132.06 505.11 135.88 513.93 139.97 522.37 144.66 530.3 149.87 537.91 155.26 544.86 161.08 551.03 167.28 556.75 173.54 561.56 180.09 565.39 186.89 568.74 193.64 571.14 200.59 572.62 207.68 573.85 214.65 574.41 221.75 574.51 228.94 574.92 235.98 575.36 243.11 576.14 250.33 577.99 257.39 580.74 264.55 584.66 271.82 590.23 278.94 597.23 286.19 605.68 293.57 615.64 300.84 626.68 308.27 638.41 315.87 650.53 323.39 662.32 331.12 673.12 339.04 682.59 346.92 689.92 355.02 694.58 363.36 696.67 371.67 695.65 380.24 691.55 389.05 685.22 397.86 676.63 406.93 666.44 416.27 656.06 425.6 645.97 434.99 636.96 444.39 629.93 453.81 624.97 463.24 622.24 472.65 622.12 482.06 623.99 491.44 627.42 500.75 632.45 510.02 637.96 519.19 643.36 528.19 648.66 537.12 652.78 545.84 655.31 554.28 656.5 562.59 655.64 570.54 652.7 578.08 648.13 585.4 641.65 592.23 633.55 598.5 624.27 604.47 613.87 609.81 602.72 614.45 591.12 618.76 579.26 622.33 567.4 625.15 555.68 627.64 544.25 629.39 533.24 630.41 522.63 631.21 512.5 631.37 502.82 630.96 493.58 630.52 484.71 629.67 476.14 628.5 467.89 627.59 459.8 626.58 451.8 625.57 443.98 625.12 436.12 624.87 428.17 624.92 420.29 625.75 412.25 627 404.02 628.69 395.79 631.24 387.36 634.21 378.71 637.55 370.06 641.59 361.41 645.71 352.81 649.78 344.24 654.16 335.75 658.2 327.4 661.77 319.13 665.24 311.04 667.98 303.22 669.91 295.52 671.42 288.12 671.96 281.11 671.5 274.24 670.46 267.79 668.37 261.78 665.27 255.91 661.58 250.49 656.93 245.51 651.42 240.59 645.4 236.04 638.63 231.84 631.22 227.53 623.45 223.42 615.17 219.47 606.48 215.19 597.61 210.92 588.43 206.58 579.05 201.76 569.61 196.8 560.04 191.67 550.41 186.05 540.8 180.3 531.17 174.5 521.57 168.41 512.02 162.46 502.51 156.77 493.06 151.17 483.68 146.11 474.34 141.73 465.08 137.82 455.86 134.8 446.69 132.76 437.57 131.35 428.49 130.93 419.45 131.48 410.46 132.46 401.48 134.19 392.53 136.55 383.64 138.85 374.75 141.38 366.12 143.97 357.76 146.08 349.39 148.05 341.29 149.85 333.47 151.03 325.65 152.08 318.12 153.07 310.89 153.66 303.66 154.42 296.73 155.46 290.13 156.49 283.51 158.06 277.21 160.27 271.24 162.83 265.24 166.19 259.55 170.35 254.18 175.02 248.74 180.51 243.59 186.75 238.71 193.45 233.73 200.79 228.98 208.65 224.46 216.79 219.77 225.29 215.26 234.06 210.91 242.89 206.33 251.86 201.87 260.9 197.52 269.83 192.9 278.78 188.35 287.7 183.88 296.45 179.13 305.19 174.46 313.91 169.89 322.46 165.07 331.05 160.39 339.68 155.89 348.2 151.23 356.82 146.83 365.57 142.74 374.26 138.64 383.13 134.96 392.21 131.77 401.27 128.74 410.57 126.3 420.12 124.56" stroke-dasharray="3 2" transform="rotate(8.08, 400, 400)" opacity="0.96"></path><path d="M422.34 135.24C431.54 133.81 440.66 133.14 449.68 133.22 458.68 133.64 467.54 134.83 476.2 136.74 484.78 138.99 493.09 141.93 501.03 145.51 508.8 149.36 516.1 153.8 522.83 158.75 529.27 163.87 535.03 169.44 540.03 175.39 544.67 181.41 548.49 187.75 551.47 194.34 554.15 200.91 556.07 207.68 557.32 214.62 558.56 221.48 559.41 228.47 560.07 235.56 561.24 242.53 562.67 249.6 564.62 256.76 567.69 263.79 571.71 270.91 576.86 278.12 583.49 285.21 591.36 292.41 600.43 299.72 610.67 306.94 621.66 314.3 633.03 321.8 644.48 329.23 655.37 336.83 665.12 344.61 673.5 352.33 679.78 360.26 683.53 368.39 684.95 376.5 683.53 384.82 679.34 393.37 673.2 401.9 665.02 410.67 655.4 419.66 645.6 428.65 636.02 437.66 627.35 446.66 620.4 455.66 615.25 464.64 612.07 473.58 611.25 482.51 612.26 491.37 614.79 500.13 618.91 508.84 623.67 517.41 628.55 525.79 633.59 534.09 637.79 542.14 640.77 549.89 642.76 557.51 643 564.76 641.41 571.58 638.4 578.19 633.6 584.32 627.19 589.89 619.59 595.21 610.76 599.92 600.99 603.97 590.61 607.74 579.72 610.84 568.59 613.25 557.37 615.4 546.22 616.88 535.28 617.72 524.56 618.41 514.18 618.55 504.16 618.18 494.47 617.86 485.13 617.18 476.1 616.25 467.35 615.59 458.82 614.86 450.47 614.14 442.3 613.96 434.19 613.97 426.12 614.24 418.13 615.23 410.1 616.58 402.01 618.31 393.93 620.82 385.76 623.69 377.5 626.87 369.23 630.68 361.07 634.55 353.05 638.35 345.04 642.45 337.19 646.24 329.55 649.6 321.95 652.9 314.6 655.55 307.55 657.46 300.58 659.04 293.93 659.73 287.67 659.52 281.49 658.8 275.7 657.13 270.32 654.53 265 651.39 260.06 647.36 255.49 642.5 250.88 637.18 246.55 631.12 242.47 624.42 238.2 617.37 234.05 609.79 229.96 601.78 225.51 593.56 221.01 585.01 216.4 576.21 211.32 567.32 206.09 558.26 200.71 549.09 194.91 539.91 189.02 530.68 183.13 521.43 177.05 512.22 171.15 503.02 165.58 493.86 160.16 484.74 155.31 475.66 151.18 466.65 147.53 457.67 144.76 448.75 142.97 439.89 141.77 431.06 141.54 422.28 142.24 413.56 143.35 404.86 145.17 396.22 147.59 387.65 149.96 379.08 152.54 370.77 155.18 362.75 157.36 354.72 159.41 346.96 161.27 339.49 162.53 332.01 163.65 324.82 164.67 317.92 165.25 311.01 165.95 304.4 166.85 298.09 167.67 291.76 168.96 285.72 170.79 279.98 172.88 274.21 175.7 268.72 179.26 263.51 183.28 258.22 188.08 253.19 193.63 248.4 199.63 243.5 206.3 238.8 213.54 234.3 221.11 229.63 229.11 225.11 237.46 220.74 245.95 216.14 254.65 211.65 263.49 207.26 272.33 202.61 281.22 198.04 290.14 193.55 298.96 188.81 307.78 184.15 316.59 179.6 325.28 174.84 333.98 170.22 342.69 165.78 351.32 161.23 359.99 156.92 368.74 152.94 377.43 148.95 386.24 145.37 395.16 142.28 404.07 139.33 413.13 136.96 422.33 135.24" stroke-dasharray="8 4" transform="rotate(12.12, 400, 400)" opacity="0.35"></path><path d="M421.93 145.93C430.72 144.52 439.33 143.83 447.74 143.85 456.13 144.19 464.27 145.25 472.11 147 479.87 149.07 487.27 151.81 494.23 155.15 501.03 158.77 507.32 162.94 513.01 167.61 518.48 172.47 523.28 177.77 527.39 183.45 531.26 189.22 534.43 195.3 536.92 201.66 539.28 208.02 541.1 214.59 542.49 221.35 544.05 228.05 545.46 234.89 546.91 241.85 549 248.72 551.5 255.69 554.64 262.76 558.87 269.71 564.03 276.76 570.24 283.89 577.71 290.92 586.21 298.05 595.64 305.28 605.92 312.42 616.66 319.69 627.49 327.08 638.16 334.4 648.1 341.87 656.79 349.49 664.1 357.06 669.39 364.81 672.31 372.72 673.12 380.62 671.37 388.69 667.13 396.96 661.19 405.21 653.42 413.66 644.36 422.29 635.14 430.92 626.06 439.54 617.74 448.12 610.91 456.69 605.62 465.22 602.06 473.66 600.62 482.1 600.85 490.43 602.52 498.61 605.75 506.76 609.71 514.73 613.96 522.48 618.6 530.15 622.7 537.55 625.9 544.63 628.41 551.57 629.5 558.14 629.03 564.29 627.37 570.24 624.07 575.72 619.25 580.66 613.31 585.38 606.08 589.52 597.82 593.07 588.84 596.37 579.17 599.07 569.06 601.14 558.68 603.01 548.15 604.29 537.64 605.02 527.18 605.64 516.89 605.79 506.86 605.52 497.02 605.32 487.47 604.84 478.21 604.14 469.15 603.74 460.34 603.28 451.75 602.84 443.31 602.91 435.02 603.15 426.86 603.62 418.77 604.75 410.74 606.18 402.76 607.94 394.8 610.4 386.85 613.16 378.92 616.18 370.99 619.77 363.25 623.39 355.73 626.94 348.21 630.77 340.92 634.31 333.89 637.46 326.88 640.59 320.16 643.13 313.75 645.01 304.37 647.02 287.4 646.34 279.82 643.53 274.87 640.9 270.23 637.43 265.88 633.19 261.42 628.51 257.16 623.13 253.05 617.13 248.7 610.79 244.39 603.91 240.08 596.59 235.39 589.04 230.61 581.14 225.71 572.96 220.37 564.66 214.9 556.15 209.31 547.5 203.36 538.81 197.39 530.03 191.48 521.21 185.45 512.4 179.67 503.56 174.26 494.75 169.07 485.96 164.48 477.19 160.62 468.48 157.26 459.8 154.77 451.16 153.22 442.59 152.25 434.04 152.2 425.55 153.04 417.13 154.26 408.72 156.16 400.38 158.62 392.13 161.05 383.87 163.67 375.89 166.36 368.19 168.6 360.48 170.72 353.04 172.66 345.88 174.02 338.72 175.21 331.83 176.28 325.23 176.9 318.61 177.57 312.27 178.39 306.21 179.58 297.22 184.46 280.52 188.61 272.77 192 267.61 196.12 262.67 200.95 257.94 206.23 253.1 212.17 248.43 218.71 243.94 225.6 239.28 232.98 234.75 240.76 230.35 248.75 225.74 257.03 221.22 265.51 216.8 274.06 212.14 282.74 207.56 291.47 203.07 300.2 198.35 308.95 193.72 317.69 189.21 326.38 184.51 335.08 179.97 343.76 175.62 352.39 171.17 361.03 166.97 369.68 163.1 378.31 159.23 386.97 155.77 395.68 152.77 404.37 149.91 413.13 147.61 421.92 145.93" stroke-dasharray="6 0" transform="rotate(16.16, 400, 400)" opacity="0.79"></path><path d="M418.95 156.62C427.29 155.23 435.36 154.52 443.15 154.48 450.91 154.75 458.35 155.69 465.42 157.29 472.42 159.19 479 161.71 485.1 164.82 491.08 168.19 496.54 172.1 501.42 176.49 506.15 181.07 510.28 186.08 513.81 191.47 517.21 196.97 520.07 202.78 522.41 208.87 524.79 214.99 526.82 221.34 528.62 227.88 530.75 234.39 532.91 241.05 535.29 247.84 538.36 254.56 541.95 261.4 546.21 268.33 551.49 275.18 557.62 282.12 564.66 289.14 572.73 296.07 581.61 303.1 591.16 310.22 601.27 317.27 611.58 324.42 621.74 331.67 631.54 338.87 640.48 346.19 648.12 353.63 654.39 361.04 658.75 368.59 660.92 376.27 661.19 383.94 659.16 391.76 654.92 399.73 649.19 407.69 641.84 415.8 633.32 424.06 624.66 432.33 616.08 440.54 608.12 448.68 601.44 456.82 596.08 464.87 592.21 472.81 590.23 480.74 589.75 488.53 590.61 496.15 592.97 503.73 596.11 511.11 599.68 518.24 603.79 525.29 607.61 532.05 610.82 538.49 614.47 547.77 614.15 564.03 609.76 570.85 605.36 575.03 599.71 578.69 592.97 581.79 585.48 584.7 577.18 587.06 568.29 588.87 559.01 590.53 549.39 591.67 539.62 592.32 529.75 592.93 519.9 593.14 510.16 592.98 500.5 592.94 491.03 592.65 481.78 592.2 472.67 592.03 463.78 591.83 455.11 591.66 446.57 591.96 438.2 592.41 430.01 593.06 421.89 594.3 413.9 595.81 406.04 597.58 398.2 599.98 390.46 602.63 382.81 605.49 375.16 608.87 367.78 612.25 360.68 615.55 353.58 619.11 346.75 622.41 340.22 625.35 333.69 628.3 327.46 630.72 321.56 632.55 312.87 634.61 297.07 634.54 289.92 632.28 285.17 630.1 280.67 627.15 276.37 623.48 271.91 619.41 267.57 614.68 263.32 609.34 258.78 603.68 254.24 597.49 249.65 590.85 244.69 583.99 239.62 576.74 234.44 569.2 228.87 561.52 223.19 553.61 217.43 545.52 211.41 537.37 205.42 529.09 199.55 520.75 193.64 512.38 188.04 503.97 182.86 495.56 177.94 487.15 173.65 478.75 170.09 470.39 167.03 462.04 164.82 453.73 163.52 445.48 162.78 437.25 162.9 429.07 163.87 420.97 165.2 412.87 167.16 404.85 169.66 396.91 172.12 388.97 174.78 381.3 177.5 373.91 179.8 366.51 181.99 359.37 184.01 352.51 185.46 345.63 186.75 339.02 187.9 332.68 188.58 326.32 189.27 320.22 190.04 314.38 191.05 305.7 195.01 289.48 198.44 281.9 201.23 276.83 204.71 271.96 208.84 267.28 213.38 262.48 218.56 257.83 224.34 253.34 230.49 248.68 237.16 244.14 244.26 239.72 251.62 235.1 259.32 230.57 267.27 226.13 275.37 221.48 283.65 216.9 292.04 212.42 300.48 207.74 308.99 203.16 317.51 198.7 326.04 194.09 334.57 189.63 343.08 185.38 351.58 181.05 360.07 176.98 368.53 173.22 376.97 169.49 385.41 166.14 393.82 163.24 402.22 160.49 410.61 158.26 418.94 156.62" stroke-dasharray="5 5" transform="rotate(20.200000000000003, 400, 400)" opacity="0.47"></path><path d="M413.76 167.3C421.6 165.94 429.13 165.22 436.32 165.13 443.48 165.32 450.28 166.15 456.67 167.6 463 169.32 468.89 171.64 474.32 174.52 479.65 177.64 484.49 181.27 488.82 185.38 493.06 189.68 496.8 194.39 500.06 199.48 503.3 204.68 506.14 210.21 508.64 216.01 511.29 221.86 513.78 227.95 516.2 234.24 519.05 240.52 522.07 246.96 525.41 253.54 529.46 260.08 534.06 266.75 539.3 273.5 545.44 280.2 552.33 286.99 559.96 293.86 568.39 300.67 577.41 307.57 586.84 314.54 596.59 321.45 606.31 328.46 615.68 335.55 624.56 342.6 632.48 349.75 639.08 357 644.38 364.21 647.88 371.55 649.37 378.98 649.17 386.41 646.92 393.95 642.7 401.61 637.2 409.26 630.27 417.04 622.28 424.91 614.17 432.79 606.09 440.59 598.5 448.28 592.01 455.97 586.62 463.55 582.52 470.99 580.07 478.41 578.96 485.66 579.07 492.72 580.6 499.74 582.93 506.54 585.76 513.07 589.26 519.53 592.67 525.7 595.71 531.52 599.59 539.91 601.44 554.49 598.81 560.54 595.79 564.26 591.58 567.5 586.31 570.23 580.31 572.82 573.45 574.91 565.89 576.51 557.87 578.01 549.38 579.07 540.59 579.7 531.58 580.34 522.45 580.62 513.29 580.6 504.11 580.72 495 580.64 486.03 580.42 477.12 580.49 468.38 580.53 459.83 580.6 451.36 581.11 443.07 581.75 434.97 582.55 426.92 583.89 419.04 585.45 411.33 587.23 403.64 589.56 396.1 592.1 388.71 594.8 381.32 597.97 374.24 601.12 367.48 604.18 360.71 607.49 354.24 610.54 348.09 613.28 338.98 617.18 322.27 622.16 314.62 622.94 307.16 622.58 293.22 617.79 286.59 613.4 282 609.9 277.49 605.76 273 601.05 268.22 596.04 263.4 590.52 258.52 584.55 253.29 578.36 247.95 571.78 242.52 564.88 236.77 557.84 230.94 550.54 225.1 543.04 219.08 535.47 213.14 527.74 207.38 519.9 201.66 512.04 196.3 504.1 191.4 496.13 186.8 488.15 182.83 480.16 179.59 472.19 176.85 464.22 174.94 456.28 173.89 448.38 173.36 440.5 173.66 432.66 174.75 424.89 176.16 417.12 178.18 409.43 180.7 401.81 183.19 394.2 185.86 386.84 188.6 379.74 190.95 372.64 193.2 365.79 195.3 359.2 196.86 352.59 198.25 346.24 199.49 340.13 200.64 331.06 202.7 314.05 204.11 306.08 205.94 298.23 212.44 283.39 217.34 276.34 221.16 271.57 225.6 266.94 230.61 262.45 235.97 257.8 241.86 253.26 248.21 248.82 254.83 244.2 261.84 239.67 269.14 235.23 276.64 230.6 284.36 226.05 292.24 221.6 300.23 216.98 308.32 212.46 316.46 208.08 324.65 203.57 332.86 199.23 341.06 195.09 349.28 190.89 357.47 186.95 365.62 183.32 373.77 179.72 381.88 176.5 389.91 173.71 397.95 171.05 405.9 168.9 413.75 167.31" stroke-dasharray="8 2" transform="rotate(24.24, 400, 400)" opacity="0.82"></path><path d="M406.95 177.99C414.29 176.66 421.28 175.93 427.92 175.8 434.53 175.91 440.76 176.63 446.59 177.93 455.07 180.54 469.79 188.8 476.04 194.3 480.04 198.3 483.65 202.71 486.91 207.49 490.23 212.38 493.3 217.6 496.18 223.09 499.3 228.65 502.39 234.45 505.56 240.46 509.19 246.47 513.08 252.67 517.35 259 522.28 265.32 527.74 271.77 533.79 278.31 540.58 284.82 547.99 291.42 555.95 298.11 564.5 304.74 573.42 311.46 582.53 318.26 591.75 325 600.75 331.83 609.25 338.73 617.17 345.6 624.08 352.55 629.69 359.57 634.07 366.57 636.78 373.66 637.66 380.84 637.06 388 634.64 395.25 630.48 402.58 625.23 409.91 618.71 417.32 611.24 424.8 603.66 432.29 596.08 439.66 588.87 446.9 582.59 454.14 577.23 461.24 572.96 468.18 570.12 475.09 568.46 481.82 567.9 488.34 568.65 494.82 570.18 501.06 572.27 507.02 576.54 515.72 584.52 531.36 586.95 538.18 587.78 544.42 583.22 554.58 577.83 558.45 573.24 560.78 567.78 562.66 561.58 564.12 554.89 565.52 547.65 566.54 539.98 567.19 532.04 567.87 523.84 568.26 515.49 568.39 507.04 568.68 498.55 568.8 490.09 568.81 481.63 569.1 473.26 569.37 465.03 569.66 456.83 570.36 448.78 571.16 440.9 572.1 433.06 573.52 425.38 575.11 417.88 576.88 410.39 579.15 403.07 581.57 395.93 584.12 388.79 587.08 381.97 590 375.48 592.83 368.97 595.89 362.77 598.71 356.88 601.24 348.15 604.89 332.01 609.69 324.54 610.58 317.16 610.49 303.06 606.67 296.18 602.96 291.4 599.97 286.64 596.39 281.88 592.27 276.84 587.88 271.75 582.99 266.58 577.66 261.11 572.12 255.56 566.2 249.94 559.94 244.08 553.55 238.19 546.87 232.35 539.98 226.39 533 220.59 525.84 215.02 518.55 209.56 511.22 204.49 503.79 199.91 496.3 195.67 488.8 192.05 481.26 189.16 473.71 186.75 466.16 185.13 458.61 184.33 451.1 184.02 443.59 184.47 436.12 185.67 428.7 187.16 421.29 189.21 413.93 191.74 406.64 194.24 399.36 196.92 392.31 199.66 385.51 202.05 378.7 204.36 372.13 206.53 365.79 208.2 359.44 209.7 353.32 211.05 347.44 212.35 338.67 214.48 322.16 215.74 314.39 217.22 306.7 222.49 292.07 226.52 285.08 229.68 280.34 233.4 275.73 237.66 271.24 242.23 266.61 247.32 262.08 252.87 257.64 258.7 253.05 264.93 248.53 271.49 244.11 278.26 239.52 285.3 235.02 292.55 230.62 299.92 226.08 307.45 221.64 315.06 217.36 322.75 212.96 330.49 208.74 338.24 204.73 346.03 200.68 353.8 196.88 361.52 193.38 369.27 189.93 376.95 186.84 384.53 184.16 392.13 181.61 399.61 179.54 406.94 177.99" stroke-dasharray="4 8" transform="rotate(28.28, 400, 400)" opacity="0.85"></path><path d="M399.34 188.68C406.16 187.38 412.65 186.65 418.8 186.47 427.81 186.83 443.98 190.64 451.11 194.01 457.86 198.19 469.75 209.01 475.06 215.51 478.66 220.08 482.12 224.97 485.53 230.14 489.22 235.39 492.98 240.87 496.91 246.57 501.3 252.29 505.99 258.2 511.07 264.26 516.73 270.31 522.86 276.5 529.49 282.79 536.7 289.07 544.37 295.44 552.43 301.9 560.86 308.32 569.47 314.83 578.09 321.4 586.64 327.94 594.83 334.55 602.41 341.23 609.35 347.87 615.26 354.59 619.93 361.37 623.46 368.12 625.46 374.95 625.82 381.83 624.88 388.7 622.34 395.64 618.27 402.63 613.28 409.62 607.16 416.66 600.2 423.74 593.14 430.82 586.04 437.76 579.23 444.56 573.19 451.34 567.91 457.97 563.52 464.41 560.38 470.83 558.26 477.06 557.1 483.05 557.52 491.87 562.53 508.08 565.94 515.37 571.43 528.08 571.32 543.06 567.61 546.55 562.19 549.54 546.86 553.62 537.4 554.82 530.63 555.58 523.5 556.09 516.12 556.38 508.58 556.84 500.9 557.16 493.15 557.38 485.35 557.87 477.55 558.35 469.81 558.84 462.07 559.7 454.42 560.65 446.89 561.7 439.38 563.18 432.01 564.79 424.79 566.55 417.58 568.73 410.52 571.04 403.63 573.43 396.73 576.19 390.15 578.9 383.88 581.5 377.59 584.32 371.59 586.91 365.87 589.24 357.36 592.62 341.48 597.2 334.01 598.16 326.55 598.29 312.03 595.3 304.82 592.19 299.82 589.66 294.81 586.59 289.78 583.01 284.49 579.19 279.15 574.9 273.76 570.18 268.12 565.27 262.43 559.98 256.71 554.35 250.82 548.59 244.97 542.54 239.21 536.26 233.42 529.89 227.83 523.31 222.53 516.59 217.39 509.82 212.66 502.92 208.45 495.94 204.59 488.94 201.35 481.87 198.81 474.78 196.74 467.68 195.41 460.57 194.85 453.46 194.74 446.36 195.34 439.27 196.63 432.22 198.18 425.18 200.26 418.17 202.78 411.22 205.27 404.27 207.94 397.54 210.68 391.02 213.11 384.51 215.46 378.2 217.69 372.12 219.46 366.02 221.08 360.12 222.54 354.44 224.03 345.97 226.35 329.92 227.54 322.32 228.79 314.79 233.08 300.37 236.37 293.43 238.93 288.74 242 284.16 245.55 279.69 249.38 275.09 253.69 270.58 258.44 266.16 263.46 261.6 268.87 257.13 274.64 252.75 280.62 248.22 286.9 243.79 293.4 239.47 300.06 235.02 306.9 230.7 313.87 226.52 320.93 222.27 328.08 218.18 335.26 214.31 342.49 210.41 349.74 206.77 356.94 203.42 364.18 200.12 371.35 197.16 378.43 194.6 385.52 192.17 392.5 190.18 399.33 188.68" stroke-dasharray="10 3" transform="rotate(32.32, 400, 400)" opacity="0.62"></path><path d="M391.79 199.37C401.14 197.74 418.3 197.4 426.1 198.67 433.58 200.77 447.11 207.62 453.25 212.27 459.31 217.56 471.03 230.09 476.99 237.19 481.26 242.1 485.68 247.25 490.32 252.61 495.36 258.02 500.72 263.6 506.44 269.35 512.63 275.1 519.21 281 526.17 287.01 533.56 293.01 541.25 299.11 549.16 305.3 557.28 311.47 565.4 317.72 573.37 324.03 581.15 330.33 588.46 336.69 595.09 343.1 601.06 349.49 606.03 355.94 609.82 362.43 612.56 368.91 613.93 375.45 613.83 382.01 612.62 388.58 610.01 395.18 606.06 401.81 601.34 408.44 595.63 415.1 589.16 421.76 582.61 428.43 575.99 434.94 569.58 441.28 563.81 447.62 558.64 453.78 554.21 459.75 549.58 468.56 546.08 485.01 546.77 492.57 549 499.77 554.53 512.56 556.88 518.08 555.23 532.33 540.27 541.35 532.6 542.63 527.01 543.48 521.01 544.12 514.67 544.58 508.15 545.2 501.4 545.71 494.49 546.13 487.5 546.81 480.42 547.47 473.32 548.14 466.19 549.14 459.07 550.21 452.02 551.35 444.97 552.87 437.99 554.49 431.13 556.21 424.27 558.31 417.52 560.5 410.9 562.74 404.27 565.31 397.92 567.8 391.84 570.19 385.74 572.77 379.89 575.15 374.28 577.28 365.91 580.4 350.06 584.71 342.49 585.7 334.87 585.99 319.83 583.7 312.28 581.11 307.07 578.99 301.83 576.38 296.57 573.29 291.1 569.99 285.59 566.25 280.05 562.11 274.33 557.79 268.59 553.1 262.88 548.09 257.07 542.94 251.35 537.51 245.77 531.82 240.23 526.05 234.93 520.07 229.96 513.92 225.19 507.71 220.86 501.37 217.05 494.92 213.59 488.44 210.74 481.87 208.57 475.26 206.82 468.63 205.78 461.97 205.45 455.29 205.53 448.61 206.26 441.93 207.63 435.27 209.23 428.61 211.32 421.97 213.82 415.36 216.29 408.76 218.94 402.35 221.66 396.13 224.1 389.91 226.49 383.87 228.78 378.03 231.5 369.34 235.65 352.83 237.19 344.98 238.25 337.24 240.61 322.43 242.23 315.32 244.17 308.23 250.18 294.46 254.36 287.76 257.5 283.21 261.08 278.75 265.09 274.37 269.31 269.88 273.93 265.47 278.89 261.15 284.05 256.72 289.52 252.38 295.25 248.15 301.13 243.83 307.21 239.63 313.46 235.59 319.8 231.48 326.27 227.55 332.79 223.84 339.39 220.11 346.02 216.63 352.63 213.43 359.29 210.29 365.9 207.47 372.44 205.03 379 202.71 385.46 200.81 391.78 199.37" stroke-dasharray="10 1" transform="rotate(36.36, 400, 400)" opacity="0.93"></path><path d="M385.21 210.05C393.89 208.47 410.02 208 417.48 209.09 427.29 211.44 436.28 215.59 444.62 221.33 453.34 227.68 461.92 235.41 470.71 244.26 480.59 253.45 491.35 263.56 503.22 274.33 516.54 285.2 530.95 296.61 545.93 308.37 561.11 320.12 575.33 332.17 587.26 344.4 596.6 356.6 601.69 368.99 601.73 381.45 600.31 387.67 597.66 393.92 593.86 400.18 589.41 406.44 584.1 412.7 578.12 418.95 572.07 425.19 565.92 431.28 559.91 437.18 554.43 443.08 549.41 448.79 544.99 454.29 538.89 465.26 535.64 475.34 534.82 484.38 536.86 493.27 539.59 501.03 541.91 507.53 544.6 516.38 536.59 527.71 525.53 530.67 516.31 532.67 505.48 534.07 493.6 535.07 481.28 537 468.43 538.95 455.48 541.05 448.98 542.59 442.49 544.21 436.05 545.89 429.6 547.9 423.21 549.96 416.89 552.05 410.57 554.43 404.46 556.72 398.57 558.9 392.66 561.26 386.94 563.42 381.41 565.36 370.24 569.4 359.65 572.08 349.52 573.22 339 573.91 328.66 572.75 318.39 569.76 307.51 566.06 296.52 560.55 285.5 553.47 274.02 545.79 262.76 536.74 252.11 526.65 241.82 516.2 232.84 504.94 225.75 493.14 220.03 481.21 216.75 468.91 216.15 456.45 216.39 450.21 217.25 443.95 218.67 437.69 220.31 431.43 222.39 425.16 224.86 418.92 227.3 412.67 229.91 406.58 232.6 400.66 235.04 394.74 237.45 388.98 239.78 383.39 243.26 372.16 246.28 361.53 248.91 351.53 250.26 341.37 251.85 331.72 254.05 322.57 256.05 313.14 259.34 304.09 264.05 295.44 269.31 286.4 276.18 277.66 284.44 269.32 293.35 260.6 303.43 252.28 314.31 244.56 325.6 236.65 337.39 229.51 349.34 223.42 355.37 220.43 361.4 217.77 367.39 215.46 373.39 213.25 379.34 211.44 385.2 210.06" stroke-dasharray="8 2" transform="rotate(40.400000000000006, 400, 400)" opacity="0.54"></path><path d="M380.36 220.74C391.22 218.55 401.41 218.19 410.93 219.54 420.52 221.57 429.63 225.28 438.41 230.46 447.61 236.21 456.94 243.26 466.65 251.39 477.29 259.86 488.76 269.22 501.12 279.25 514.46 289.42 528.46 300.13 542.51 311.19 556.31 322.29 568.82 333.69 578.9 345.24 586.52 356.79 590.26 368.5 589.52 380.24 585.64 391.98 577.86 403.75 567.09 415.4 556.05 427.06 545.22 438.01 535.87 448.16 529.44 458.26 525.36 467.48 523.43 475.71 524.14 483.83 525.72 490.89 527.27 496.81 529.72 504.96 524.72 515.8 516.3 518.95 509.1 521.15 500.24 522.85 490.16 524.19 479.63 526.38 468.34 528.55 456.64 530.79 444.85 534.17 432.87 537.74 420.91 541.37 408.95 545.97 397.54 550.08 386.69 553.48 375.72 557.15 365.11 559.62 354.81 560.73 344.18 561.51 333.63 560.65 323.11 558.17 312.14 555.11 301.13 550.43 290.2 544.29 279.07 537.63 268.32 529.69 258.34 520.7 248.88 511.4 240.8 501.26 234.6 490.52 229.71 479.66 227.09 468.35 226.93 456.81 228 445.24 231.1 433.5 235.9 421.74 240.58 409.98 245.68 398.73 250.69 388.07 254.36 377.35 257.63 367.14 260.52 357.45 262.16 347.63 263.91 338.23 266.07 329.28 267.84 320.08 270.61 311.22 274.55 302.72 278.81 293.9 284.46 285.38 291.39 277.26 298.81 268.83 307.38 260.83 316.82 253.43 326.6 245.91 336.99 239.14 347.7 233.37 358.53 227.82 369.5 223.52 380.35 220.74" stroke-dasharray="3 11" transform="rotate(44.44, 400, 400)" opacity="0.95"></path><path d="M377.81 231.43C387.87 229.32 397.58 228.88 406.92 230.02 416.35 231.76 425.6 235.03 434.79 239.67 444.38 244.82 454.26 251.2 464.59 258.6 475.65 266.33 487.4 274.92 499.76 284.17 512.69 293.58 525.88 303.54 538.7 313.85 550.95 324.22 561.69 334.89 569.99 345.71 576.03 356.55 578.57 367.53 577.21 378.5 573.25 389.48 565.95 400.45 556.05 411.26 545.92 422.08 535.83 432.19 526.83 441.51 520.21 450.78 515.49 459.22 512.6 466.73 512.3 477.38 514.93 493.63 514.38 499.26 511.61 504.14 496.13 510.89 484.15 513.51 475.33 515.9 465.56 518.24 455.15 520.59 444.64 523.9 433.68 527.31 422.48 530.68 411.28 534.89 400.35 538.6 389.75 541.65 379.06 544.96 368.54 547.2 358.19 548.24 347.61 549.06 337.04 548.44 326.49 546.38 315.68 543.87 304.89 539.9 294.32 534.61 283.76 528.88 273.71 521.95 264.56 514.01 256.04 505.79 248.93 496.73 243.64 487.04 239.56 477.23 237.57 466.91 237.82 456.29 239.12 445.64 242.26 434.74 246.94 423.73 251.52 412.72 256.52 402.11 261.51 391.97 265.32 381.79 268.82 372.01 271.97 362.68 273.94 353.23 275.92 344.13 278.16 335.41 279.87 326.5 282.34 317.87 285.74 309.59 289.23 301.06 293.91 292.82 299.72 284.97 305.86 276.9 313.09 269.26 321.2 262.21 329.57 255.1 338.64 248.73 348.17 243.31 357.8 238.1 367.74 234.06 377.81 231.43" stroke-dasharray="8 7" transform="rotate(48.48, 400, 400)" opacity="0.93"></path><path d="M377.85 242.12C387.2 240.1 396.47 239.6 405.62 240.53 414.88 242 424.2 244.86 433.64 248.97 443.42 253.54 453.57 259.25 464.15 265.92 475.24 272.9 486.83 280.71 498.74 289.15 510.89 297.77 522.94 306.93 534.31 316.44 544.91 326.03 553.89 335.92 560.52 345.95 565.14 356.02 566.66 366.21 564.81 376.38 560.86 386.57 554.06 396.72 545.01 406.69 535.77 416.66 526.42 425.96 517.85 434.49 511.18 443 506 450.71 502.33 457.57 500.39 467.35 500.5 482.47 499.76 487.91 497.71 492.78 485.62 500.02 475.77 503 468.46 505.55 460.11 508.02 450.96 510.42 441.69 513.64 431.8 516.87 421.42 519.99 411.04 523.82 400.7 527.16 390.47 529.86 380.19 532.82 369.93 534.82 359.73 535.77 349.4 536.58 339.03 536.13 328.73 534.41 318.32 532.36 308.02 529.01 298.06 524.46 288.27 519.57 279.1 513.55 270.91 506.58 263.41 499.37 257.29 491.34 252.89 482.66 249.6 473.86 248.21 464.53 248.81 454.83 250.31 445.09 253.44 435.04 257.98 424.81 262.42 414.57 267.3 404.62 272.22 395.03 276.15 385.42 279.83 376.12 283.23 367.18 285.53 358.14 287.8 349.39 290.21 340.97 292.01 332.39 294.37 324.08 297.43 316.08 300.42 307.89 304.38 299.98 309.31 292.47 314.42 284.81 320.52 277.57 327.48 270.92 334.62 264.25 342.5 258.28 350.97 253.22 359.5 248.37 368.5 244.6 377.85 242.12" stroke-dasharray="4 9" transform="rotate(52.52, 400, 400)" opacity="0.86"></path><path d="M380.48 252.8C389.17 250.89 398 250.34 406.91 251.08 415.92 252.29 425.15 254.76 434.61 258.36 444.32 262.37 454.41 267.43 464.84 273.37 475.56 279.61 486.59 286.62 497.67 294.24 508.72 302.05 519.39 310.37 529.18 319.04 538.11 327.8 545.41 336.87 550.51 346.07 553.87 355.33 554.54 364.69 552.35 374.04 548.47 383.4 542.18 392.73 533.97 401.86 525.59 411 517.01 419.5 508.92 427.3 502.34 435.08 496.87 442.13 492.6 448.41 489.25 457.42 486.74 471.59 485.43 476.88 483.53 481.76 473.65 489.42 465.49 492.69 459.43 495.34 452.31 497.87 444.31 500.29 436.21 503.4 427.36 506.44 417.86 509.3 408.35 512.77 398.69 515.74 388.98 518.11 379.26 520.73 369.45 522.5 359.64 523.33 349.78 524.1 339.89 523.76 330.1 522.33 320.33 520.65 310.77 517.82 301.63 513.92 292.79 509.75 284.64 504.56 277.5 498.48 271.06 492.2 265.94 485.13 262.41 477.41 259.85 469.58 259 461.2 259.91 452.4 261.56 443.58 264.66 434.38 269.02 424.93 273.29 415.47 278.01 406.21 282.83 397.22 286.82 388.2 290.64 379.42 294.25 370.92 296.88 362.35 299.46 354.01 302.09 345.95 304.09 337.77 306.48 329.83 309.41 322.18 312.12 314.4 315.61 306.89 319.91 299.78 324.25 292.56 329.47 285.77 335.51 279.55 341.63 273.34 348.51 267.8 356.06 263.12 363.63 258.63 371.79 255.13 380.48 252.8" stroke-dasharray="10 8" transform="rotate(56.56, 400, 400)" opacity="0.89"></path><path d="M385.4 263.49C393.46 261.68 401.8 261.1 410.37 261.67 419 262.64 427.94 264.74 437.14 267.86 446.5 271.33 456.18 275.75 466.07 280.99 476.08 286.49 486.2 292.71 496.14 299.51 505.87 306.48 515.03 313.95 523.19 321.76 530.49 329.67 536.22 337.87 539.96 346.22 542.25 354.62 542.24 363.14 539.82 371.64 536.08 380.16 530.33 388.65 522.93 396.96 515.39 405.28 507.57 413.01 500.04 420.11 493.65 427.2 488.06 433.64 483.38 439.41 478.88 447.71 473.85 461.06 471.75 466.24 469.58 471.11 460.87 479.08 453.91 482.55 448.81 485.25 442.71 487.81 435.72 490.2 428.66 493.16 420.79 496 412.2 498.62 403.6 501.73 394.72 504.35 385.7 506.42 376.69 508.7 367.53 510.23 358.34 510.94 349.17 511.63 339.99 511.37 330.97 510.15 322.07 508.76 313.44 506.37 305.32 503.03 297.54 499.49 290.5 495.03 284.46 489.75 279.07 484.32 274.92 478.13 272.22 471.31 270.34 464.41 269.95 456.94 271.12 449.03 272.87 441.09 275.9 432.75 280.06 424.09 284.14 415.44 288.66 406.88 293.34 398.52 297.32 390.14 301.24 381.92 305 373.92 307.92 365.87 310.79 358 313.68 350.38 315.95 342.66 318.5 335.16 321.43 327.94 324.06 320.62 327.3 313.57 331.2 306.91 335.03 300.19 339.62 293.88 344.96 288.12 350.29 282.39 356.37 277.3 363.14 272.99 369.9 268.87 377.33 265.65 385.4 263.49" stroke-dasharray="10 9" transform="rotate(60.599999999999994, 400, 400)" opacity="0.53"></path><path d="M392.02 274.18C399.47 272.48 407.27 271.88 415.33 272.3 423.45 273.05 431.88 274.8 440.53 277.47 449.26 280.43 458.22 284.24 467.25 288.8 476.26 293.58 485.21 299.03 493.8 305.01 502.08 311.15 509.69 317.76 516.26 324.7 522.02 331.74 526.34 339.06 528.91 346.54 530.31 354.07 529.77 361.72 527.24 369.37 523.7 377.03 518.49 384.68 511.88 392.19 505.16 399.69 498.11 406.69 491.17 413.12 485.1 419.55 479.54 425.43 474.64 430.71 469.29 438.38 462.04 450.97 459.06 456.03 456.34 460.86 447.96 469.01 441.8 472.59 437.36 475.29 432.06 477.82 425.93 480.15 419.76 482.94 412.8 485.56 405.11 487.93 397.43 490.7 389.41 493 381.21 494.77 373.04 496.74 364.71 498.04 356.35 498.62 348.07 499.21 339.82 498.98 331.77 497.93 323.9 496.77 316.36 494.74 309.36 491.87 302.73 488.87 296.83 485.05 291.89 480.49 287.53 475.81 284.29 470.44 282.34 464.46 281.06 458.41 281.08 451.81 282.44 444.76 284.25 437.68 287.17 430.18 291.1 422.33 294.96 414.48 299.25 406.66 303.73 398.96 307.66 391.26 311.6 383.65 315.45 376.21 318.61 368.73 321.73 361.4 324.86 354.27 327.43 347.09 330.18 340.09 333.22 333.36 335.92 326.57 339.08 320.04 342.77 313.88 346.31 307.69 350.49 301.9 355.32 296.63 360.09 291.41 365.55 286.77 371.68 282.85 377.79 279.11 384.57 276.17 392.02 274.18" stroke-dasharray="10 7" transform="rotate(64.64, 400, 400)" opacity="0.56"></path><path d="M399.58 284.87C406.41 283.3 413.57 282.68 420.99 282.97 428.43 283.53 436.14 284.96 444 287.2 451.87 289.68 459.86 292.92 467.78 296.82 475.6 300.91 483.21 305.6 490.36 310.79 497.16 316.11 503.24 321.86 508.32 327.94 512.7 334.11 515.8 340.54 517.39 347.15 518.08 353.79 517.17 360.57 514.62 367.37 511.34 374.18 506.68 380.99 500.84 387.7 494.91 394.41 488.63 400.69 482.33 406.49 476.65 412.29 471.28 417.62 466.34 422.46 460.44 429.51 451.43 441.38 447.61 446.29 444.22 451.02 435.63 459.19 429.93 462.8 425.92 465.44 421.21 467.89 415.79 470.13 410.36 472.73 404.22 475.12 397.43 477.24 390.64 479.69 383.54 481.67 376.27 483.17 369.03 484.84 361.67 485.91 354.31 486.36 347.05 486.85 339.87 486.62 332.94 485.69 326.21 484.7 319.84 482.97 314.02 480.51 306.17 476.33 295.29 464.44 292.8 456.92 292.04 451.67 292.39 445.89 293.87 439.66 295.69 433.41 298.48 426.74 302.13 419.7 305.74 412.67 309.77 405.61 314.01 398.61 317.83 391.62 321.72 384.67 325.58 377.84 328.89 371 332.21 364.26 335.53 357.7 338.37 351.11 341.34 344.69 344.52 338.51 347.37 332.29 350.57 326.33 354.17 320.72 357.6 315.1 361.53 309.85 366.01 305.09 370.4 300.39 375.4 296.22 380.99 292.7 386.55 289.33 392.75 286.68 399.58 284.87" stroke-dasharray="3 1" transform="rotate(68.68, 400, 400)" opacity="0.08"></path><path d="M407.18 295.55C419.54 292.89 433.03 293.56 446.79 297.06 460.45 301.32 473.88 308.18 485.6 316.89 495.98 326.06 503.1 336.75 505.45 348.17 505.12 359.75 499.74 371.83 489.8 383.69 479.6 395.54 468.6 405.99 458.42 414.78 450.76 423.66 443.95 431.1 437.59 437.04 432.67 443.46 426.68 448.86 419.05 453.18 411.6 458.48 401.91 463.08 390.05 466.55 378.18 471.03 365.45 473.62 352.84 474.2 340.61 474.96 329.1 473.2 319.51 469.02 311.11 464.63 305.5 457.77 303.6 448.83 303.27 439.75 306.52 428.77 313.17 416.32 319.66 403.87 327.4 391.2 335.37 378.9 341.64 366.57 348.19 354.54 355.1 343.41 360.84 332.25 367.85 322.04 376.38 313.52 384.57 305.25 394.82 298.99 407.18 295.55" stroke-dasharray="8 7" transform="rotate(72.72, 400, 400)" opacity="0.21"></path><path d="M413.95 306.24C424.93 303.82 436.61 304.23 448.21 307.05 459.61 310.46 470.4 316.09 479.37 323.37 487.2 331 492.13 340.01 493.13 349.74 492.23 359.6 487.34 369.99 478.76 380.3 470 390.62 460.25 399.85 450.83 407.77 443.13 415.77 435.91 422.66 429.07 428.31 423.41 434.36 417.11 439.53 409.8 443.71 402.72 448.63 394.05 452.81 383.83 455.87 373.61 459.68 362.9 461.78 352.55 462.13 342.52 462.66 333.35 461.09 326.01 457.48 319.61 453.76 315.63 447.95 314.76 440.31 314.99 432.58 318.17 423.14 324.21 412.32 330.12 401.49 337.27 390.35 344.8 379.48 351.1 368.61 357.77 357.97 364.74 348.13 370.77 338.31 377.74 329.36 385.83 321.92 393.59 314.73 402.96 309.27 413.95 306.24" stroke-dasharray="9 6" transform="rotate(76.76, 400, 400)" opacity="0.69"></path><path d="M419.08 316.93C428.61 314.77 438.37 314.97 447.72 317.18 456.86 319.82 465.14 324.33 471.65 330.25 477.28 336.43 480.46 343.83 480.49 351.93 479.28 360.13 474.96 368.87 467.72 377.68 460.35 386.48 451.94 394.51 443.5 401.52 436.17 408.62 428.98 414.86 422.05 420.11 416.01 425.66 409.58 430.48 402.63 434.39 395.9 438.84 388.17 442.55 379.5 445.18 370.83 448.36 362.09 450.01 353.91 450.16 342.48 449.78 327.67 440.38 326.26 431.51 326.88 425.03 329.89 417.05 335.25 407.83 340.52 398.61 346.95 389.06 353.87 379.69 359.96 370.34 366.49 361.18 373.29 352.71 379.41 344.3 386.22 336.65 393.79 330.32 401.1 324.19 409.55 319.54 419.08 316.93" stroke-dasharray="1 8" transform="rotate(80.80000000000001, 400, 400)" opacity="0.54"></path><path d="M421.98 327.62C429.97 325.75 437.8 325.79 444.98 327.45 451.98 329.41 458.01 332.9 462.45 337.56 466.3 342.41 468.15 348.3 467.6 354.84 466.28 361.44 462.61 368.59 456.68 375.91 450.67 383.23 443.65 390.02 436.38 396.08 429.76 402.2 423.03 407.7 416.45 412.43 410.44 417.36 404.21 421.69 397.78 425.21 391.54 429.1 384.76 432.29 377.57 434.49 370.38 437.07 363.47 438.32 357.27 438.31 348.67 437.81 338.47 429.89 338.11 422.57 338.95 417.25 341.67 410.68 346.29 403.05 350.84 395.42 356.45 387.48 362.58 379.68 368.2 371.9 374.31 364.27 380.67 357.23 386.57 350.26 393 343.93 399.87 338.7 406.57 333.65 413.99 329.8 421.98 327.62" stroke-dasharray="7 5" transform="rotate(84.84, 400, 400)" opacity="0.46"></path><path d="M422.31 338.3C435.1 335.44 445.94 338.42 451.94 345.33 456.54 352.71 454.73 363.36 445.64 375.06 436.33 386.76 424.04 397.28 412.08 405.26 401.43 413.77 389.78 420.53 378.26 423.8 362.07 427.84 349.12 414.62 357.33 398.15 364.68 386.03 375.41 372.95 386.83 361.74 397.25 350.76 409.5 342 422.31 338.3" stroke-dasharray="4 3" transform="rotate(88.88, 400, 400)" opacity="0.70"></path><path d="M420.02 348.99C433.21 347.7 442.21 362.56 434.6 375.18 427.74 383.95 418.27 392.16 408.71 398.57 399.76 405.27 390.21 410.61 381.5 413.12 369.61 415.91 361.8 405.61 368.37 393.32 374.13 384.29 382.66 374.59 391.83 366.32 400.57 358.2 410.47 351.74 420.02 348.99" stroke-dasharray="10 9" transform="rotate(92.92, 400, 400)" opacity="0.94"></path><path d="M415.4 359.68C427.99 356.71 432.22 364.52 423.57 376.25 414.7 387.97 398.67 399.26 386.9 402.43 375.12 406.52 371.42 400.69 379.41 388.74 387.2 376.79 402.79 363.51 415.4 359.68" stroke-dasharray="5 1" transform="rotate(96.96, 400, 400)" opacity="0.70"></path></g></svg>