<svg width="1440" height="499" viewBox="0 0 1440 499" fill="none" xmlns="http://www.w3.org/2000/svg">
	<mask id="mask0_42_28" style="mask-type:alpha" maskUnits="userSpaceOnUse" x="0" y="0" width="1440" height="499">
		<rect width="1440" height="499" fill="#D9D9D9" />
	</mask>
	<g mask="url(#mask0_42_28)">
		<path opacity="0.4" d="M0 -177V498.787C96 415.052 192 363.252 288 343.387C384 323.522 480 320.126 576 333.199C672 346.272 768 335.708 864 301.509C960 267.31 1056 215.33 1152 145.57C1248 75.81 1344 54.093 1440 80.419V-177H0Z" fill="url(#paint0_linear_42_28)" />
		<path opacity="0.4" d="M0 -177V471.675C96 466.14 192 452.119 288 429.612C384 407.105 480 376.863 576 338.887C672 300.911 768 282.92 864 284.914C960 286.908 1056 250.264 1152 174.981C1248 99.6983 1344 98.9527 1440 172.744V-177H0Z" fill="url(#paint1_linear_42_28)" />
		<path opacity="0.4" d="M0 -177V427.447C96 430.778 192 422.169 288 401.622C384 381.075 480 342.061 576 284.582C672 227.103 768 226.847 864 283.815C960 340.783 1056 311.987 1152 197.428C1248 82.8687 1344 78.6807 1440 184.864V-177H0Z" fill="url(#paint2_linear_42_28)" />
		<path opacity="0.4" d="M0 -177V415.095C96 415.374 192 411.226 288 402.653C384 394.08 480 366.111 576 318.746C672 271.381 768 238.559 864 220.279C960 201.999 1056 196.835 1152 204.788C1248 212.741 1344 172.312 1440 83.501V-177H0Z" fill="url(#paint3_linear_42_28)" />
		<path opacity="0.4" d="M0 -177V461.186C96 428.444 192 403.155 288 385.319C384 367.483 480 351.489 576 337.337C672 323.185 768 299.305 864 265.698C960 232.091 1056 207.955 1152 193.291C1248 178.627 1344 167.585 1440 160.164V-177H0Z" fill="url(#paint4_linear_42_28)" />
		<path d="M143.648 234V189.2H167.584C173.771 189.2 178.336 190.309 181.28 192.528C184.224 194.704 185.696 197.499 185.696 200.912C185.696 203.173 185.056 205.2 183.776 206.992C182.539 208.741 180.725 210.128 178.336 211.152C175.947 212.176 173.003 212.688 169.504 212.688L170.784 209.232C174.283 209.232 177.291 209.723 179.808 210.704C182.368 211.685 184.331 213.115 185.696 214.992C187.104 216.827 187.808 219.045 187.808 221.648C187.808 225.531 186.187 228.56 182.944 230.736C179.744 232.912 175.051 234 168.864 234H143.648ZM158.496 223.44H167.584C169.248 223.44 170.485 223.141 171.296 222.544C172.149 221.947 172.576 221.072 172.576 219.92C172.576 218.768 172.149 217.893 171.296 217.296C170.485 216.699 169.248 216.4 167.584 216.4H157.472V206.416H165.536C167.243 206.416 168.48 206.139 169.248 205.584C170.059 204.987 170.464 204.155 170.464 203.088C170.464 201.979 170.059 201.147 169.248 200.592C168.48 200.037 167.243 199.76 165.536 199.76H158.496V223.44ZM196.988 234V189.2H212.092V222.288H232.316V234H196.988ZM263.191 235.024C259.564 235.024 256.194 234.448 253.079 233.296C250.007 232.144 247.34 230.523 245.079 228.432C242.818 226.299 241.047 223.803 239.767 220.944C238.53 218.085 237.911 214.971 237.911 211.6C237.911 208.187 238.53 205.072 239.767 202.256C241.047 199.397 242.818 196.923 245.079 194.832C247.34 192.699 250.007 191.056 253.079 189.904C256.194 188.752 259.564 188.176 263.191 188.176C266.86 188.176 270.231 188.752 273.303 189.904C276.375 191.056 279.042 192.699 281.303 194.832C283.564 196.923 285.314 199.397 286.551 202.256C287.831 205.072 288.471 208.187 288.471 211.6C288.471 214.971 287.831 218.085 286.551 220.944C285.314 223.803 283.564 226.299 281.303 228.432C279.042 230.523 276.375 232.144 273.303 233.296C270.231 234.448 266.86 235.024 263.191 235.024ZM263.191 222.8C264.599 222.8 265.9 222.544 267.095 222.032C268.332 221.52 269.399 220.795 270.295 219.856C271.234 218.875 271.959 217.701 272.471 216.336C272.983 214.928 273.239 213.349 273.239 211.6C273.239 209.851 272.983 208.293 272.471 206.928C271.959 205.52 271.234 204.347 270.295 203.408C269.399 202.427 268.332 201.68 267.095 201.168C265.9 200.656 264.599 200.4 263.191 200.4C261.783 200.4 260.46 200.656 259.223 201.168C258.028 201.68 256.962 202.427 256.023 203.408C255.127 204.347 254.423 205.52 253.911 206.928C253.399 208.293 253.143 209.851 253.143 211.6C253.143 213.349 253.399 214.928 253.911 216.336C254.423 217.701 255.127 218.875 256.023 219.856C256.962 220.795 258.028 221.52 259.223 222.032C260.46 222.544 261.783 222.8 263.191 222.8ZM321.025 235.024C317.398 235.024 314.049 234.469 310.977 233.36C307.948 232.208 305.302 230.587 303.041 228.496C300.822 226.405 299.094 223.931 297.857 221.072C296.62 218.213 296.001 215.056 296.001 211.6C296.001 208.144 296.62 204.987 297.857 202.128C299.094 199.269 300.844 196.795 303.105 194.704C305.366 192.613 308.033 191.013 311.105 189.904C314.22 188.752 317.633 188.176 321.345 188.176C325.782 188.176 329.729 188.923 333.185 190.416C336.684 191.909 339.564 194.043 341.825 196.816L332.161 205.328C330.753 203.707 329.217 202.491 327.553 201.68C325.932 200.827 324.118 200.4 322.113 200.4C320.449 200.4 318.934 200.656 317.569 201.168C316.246 201.68 315.116 202.427 314.177 203.408C313.238 204.389 312.513 205.563 312.001 206.928C311.489 208.293 311.233 209.851 311.233 211.6C311.233 213.264 311.489 214.8 312.001 216.208C312.513 217.573 313.238 218.747 314.177 219.728C315.116 220.709 316.225 221.477 317.505 222.032C318.828 222.544 320.3 222.8 321.921 222.8C323.628 222.8 325.292 222.523 326.913 221.968C328.534 221.371 330.262 220.368 332.097 218.96L340.545 229.328C337.814 231.163 334.7 232.571 331.201 233.552C327.702 234.533 324.31 235.024 321.025 235.024ZM327.425 227.408V210.384H340.545V229.328L327.425 227.408Z" fill="white" />
	</g>
	<defs>
		<linearGradient id="paint0_linear_42_28" x1="0" y1="-177" x2="1440" y2="-177" gradientUnits="userSpaceOnUse">
			<stop stop-color="#146622" />
			<stop offset="0.26875" stop-color="#26B33E" />
			<stop offset="0.544792" stop-color="#177226" />
			<stop offset="1" stop-color="#23A539" />
		</linearGradient>
		<linearGradient id="paint1_linear_42_28" x1="0" y1="-177" x2="1440" y2="-177" gradientUnits="userSpaceOnUse">
			<stop stop-color="#146622" />
			<stop offset="0.26875" stop-color="#26B33E" />
			<stop offset="0.544792" stop-color="#177226" />
			<stop offset="1" stop-color="#23A539" />
		</linearGradient>
		<linearGradient id="paint2_linear_42_28" x1="2.47425e-06" y1="3" x2="1440" y2="428" gradientUnits="userSpaceOnUse">
			<stop stop-color="#146622" />
			<stop offset="0.26875" stop-color="#26B33E" />
			<stop offset="0.544792" stop-color="#177226" />
			<stop offset="1" stop-color="#23A539" />
		</linearGradient>
		<linearGradient id="paint3_linear_42_28" x1="-2.20597e-06" y1="-0.999994" x2="1440" y2="415" gradientUnits="userSpaceOnUse">
			<stop stop-color="#146622" />
			<stop offset="0.26875" stop-color="#26B33E" />
			<stop offset="0.544792" stop-color="#177226" />
			<stop offset="1" stop-color="#23A539" />
		</linearGradient>
		<linearGradient id="paint4_linear_42_28" x1="-9.61486e-07" y1="5.50001" x2="1440" y2="461" gradientUnits="userSpaceOnUse">
			<stop stop-color="#146622" />
			<stop offset="0.26875" stop-color="#26B33E" />
			<stop offset="0.544792" stop-color="#177226" />
			<stop offset="1" stop-color="#23A539" />
		</linearGradient>
	</defs>
</svg>
