<svg width="1440" height="499" viewBox="0 0 1440 499" fill="none" xmlns="http://www.w3.org/2000/svg">
<mask id="mask0_56_30" style="mask-type:alpha" maskUnits="userSpaceOnUse" x="0" y="0" width="1440" height="499">
<rect width="1440" height="499" fill="#D9D9D9"/>
</mask>
<g mask="url(#mask0_56_30)">
<path opacity="0.4" d="M0 -177V498.787C96 415.052 192 363.252 288 343.387C384 323.522 480 320.126 576 333.199C672 346.272 768 335.708 864 301.509C960 267.31 1056 215.33 1152 145.57C1248 75.81 1344 54.093 1440 80.419V-177H0Z" fill="url(#paint0_linear_56_30)"/>
<path opacity="0.4" d="M0 -177V471.675C96 466.14 192 452.119 288 429.612C384 407.105 480 376.863 576 338.887C672 300.911 768 282.92 864 284.914C960 286.908 1056 250.264 1152 174.981C1248 99.6983 1344 98.9526 1440 172.744V-177H0Z" fill="url(#paint1_linear_56_30)"/>
<path opacity="0.4" d="M0 -177V427.447C96 430.778 192 422.169 288 401.622C384 381.075 480 342.061 576 284.582C672 227.103 768 226.847 864 283.815C960 340.783 1056 311.987 1152 197.428C1248 82.8687 1344 78.6807 1440 184.864V-177H0Z" fill="url(#paint2_linear_56_30)"/>
<path opacity="0.4" d="M0 -177V415.095C96 415.374 192 411.226 288 402.653C384 394.08 480 366.111 576 318.746C672 271.381 768 238.559 864 220.279C960 201.999 1056 196.835 1152 204.788C1248 212.741 1344 172.312 1440 83.501V-177H0Z" fill="url(#paint3_linear_56_30)"/>
<path opacity="0.4" d="M0 -177V461.186C96 428.444 192 403.155 288 385.319C384 367.483 480 351.489 576 337.337C672 323.185 768 299.305 864 265.698C960 232.091 1056 207.955 1152 193.291C1248 178.627 1344 167.585 1440 160.164V-177H0Z" fill="url(#paint4_linear_56_30)"/>
<path d="M166.816 235.024C163.232 235.024 159.904 234.469 156.832 233.36C153.803 232.208 151.157 230.587 148.896 228.496C146.677 226.405 144.949 223.931 143.712 221.072C142.475 218.213 141.856 215.056 141.856 211.6C141.856 208.144 142.475 204.987 143.712 202.128C144.949 199.269 146.677 196.795 148.896 194.704C151.157 192.613 153.803 191.013 156.832 189.904C159.904 188.752 163.232 188.176 166.816 188.176C171.211 188.176 175.093 188.944 178.464 190.48C181.877 192.016 184.693 194.235 186.912 197.136L177.376 205.648C176.053 203.984 174.581 202.704 172.96 201.808C171.381 200.869 169.589 200.4 167.584 200.4C166.005 200.4 164.576 200.656 163.296 201.168C162.016 201.68 160.907 202.427 159.968 203.408C159.072 204.389 158.368 205.584 157.856 206.992C157.344 208.357 157.088 209.893 157.088 211.6C157.088 213.307 157.344 214.864 157.856 216.272C158.368 217.637 159.072 218.811 159.968 219.792C160.907 220.773 162.016 221.52 163.296 222.032C164.576 222.544 166.005 222.8 167.584 222.8C169.589 222.8 171.381 222.352 172.96 221.456C174.581 220.517 176.053 219.216 177.376 217.552L186.912 226.064C184.693 228.923 181.877 231.141 178.464 232.72C175.093 234.256 171.211 235.024 166.816 235.024ZM189.624 234L209.208 189.2H224.056L243.64 234H228.024L213.56 196.368H219.448L204.984 234H189.624ZM201.272 226.192L205.112 215.312H225.72L229.56 226.192H201.272ZM249.891 234V189.2H271.459C275.64 189.2 279.245 189.883 282.275 191.248C285.347 192.613 287.715 194.576 289.379 197.136C291.043 199.653 291.875 202.64 291.875 206.096C291.875 209.552 291.043 212.539 289.379 215.056C287.715 217.531 285.347 219.429 282.275 220.752C279.245 222.075 275.64 222.736 271.459 222.736H258.275L264.995 216.528V234H249.891ZM276.707 234L265.699 217.68H281.699L292.835 234H276.707ZM264.995 218.192L258.275 211.344H270.499C272.589 211.344 274.125 210.875 275.107 209.936C276.131 208.997 276.643 207.717 276.643 206.096C276.643 204.475 276.131 203.195 275.107 202.256C274.125 201.317 272.589 200.848 270.499 200.848H258.275L264.995 194V218.192ZM310.521 234V200.912H297.401V189.2H338.745V200.912H325.625V234H310.521Z" fill="white"/>
</g>
<defs>
<linearGradient id="paint0_linear_56_30" x1="0" y1="-177" x2="1440" y2="-177" gradientUnits="userSpaceOnUse">
<stop stop-color="#146622"/>
<stop offset="0.26875" stop-color="#26B33E"/>
<stop offset="0.544792" stop-color="#177226"/>
<stop offset="1" stop-color="#23A539"/>
</linearGradient>
<linearGradient id="paint1_linear_56_30" x1="0" y1="-177" x2="1440" y2="-177" gradientUnits="userSpaceOnUse">
<stop stop-color="#146622"/>
<stop offset="0.26875" stop-color="#26B33E"/>
<stop offset="0.544792" stop-color="#177226"/>
<stop offset="1" stop-color="#23A539"/>
</linearGradient>
<linearGradient id="paint2_linear_56_30" x1="2.47425e-06" y1="3" x2="1440" y2="428" gradientUnits="userSpaceOnUse">
<stop stop-color="#146622"/>
<stop offset="0.26875" stop-color="#26B33E"/>
<stop offset="0.544792" stop-color="#177226"/>
<stop offset="1" stop-color="#23A539"/>
</linearGradient>
<linearGradient id="paint3_linear_56_30" x1="-2.20597e-06" y1="-0.999994" x2="1440" y2="415" gradientUnits="userSpaceOnUse">
<stop stop-color="#146622"/>
<stop offset="0.26875" stop-color="#26B33E"/>
<stop offset="0.544792" stop-color="#177226"/>
<stop offset="1" stop-color="#23A539"/>
</linearGradient>
<linearGradient id="paint4_linear_56_30" x1="-9.61486e-07" y1="5.50001" x2="1440" y2="461" gradientUnits="userSpaceOnUse">
<stop stop-color="#146622"/>
<stop offset="0.26875" stop-color="#26B33E"/>
<stop offset="0.544792" stop-color="#177226"/>
<stop offset="1" stop-color="#23A539"/>
</linearGradient>
</defs>
</svg>
