<svg width="1440" height="1024" viewBox="0 0 1440 1024" fill="none" xmlns="http://www.w3.org/2000/svg">
<rect width="1440" height="1024" fill="white"/>
<mask id="mask0_57_103" style="mask-type:alpha" maskUnits="userSpaceOnUse" x="0" y="0" width="1440" height="499">
<rect width="1440" height="499" fill="#D9D9D9"/>
</mask>
<g mask="url(#mask0_57_103)">
<path opacity="0.4" d="M0 -177V498.787C96 415.052 192 363.252 288 343.387C384 323.522 480 320.126 576 333.199C672 346.272 768 335.708 864 301.509C960 267.31 1056 215.33 1152 145.57C1248 75.81 1344 54.093 1440 80.419V-177H0Z" fill="url(#paint0_linear_57_103)"/>
<path opacity="0.4" d="M0 -177V471.675C96 466.14 192 452.119 288 429.612C384 407.105 480 376.863 576 338.887C672 300.911 768 282.92 864 284.914C960 286.908 1056 250.264 1152 174.981C1248 99.6983 1344 98.9527 1440 172.744V-177H0Z" fill="url(#paint1_linear_57_103)"/>
<path opacity="0.4" d="M0 -177V427.447C96 430.778 192 422.169 288 401.622C384 381.075 480 342.061 576 284.582C672 227.103 768 226.847 864 283.815C960 340.783 1056 311.987 1152 197.428C1248 82.8687 1344 78.6807 1440 184.864V-177H0Z" fill="url(#paint2_linear_57_103)"/>
<path opacity="0.4" d="M0 -177V415.095C96 415.374 192 411.226 288 402.653C384 394.08 480 366.111 576 318.746C672 271.381 768 238.559 864 220.279C960 201.999 1056 196.835 1152 204.788C1248 212.741 1344 172.312 1440 83.501V-177H0Z" fill="url(#paint3_linear_57_103)"/>
<path opacity="0.4" d="M0 -177V461.186C96 428.444 192 403.155 288 385.319C384 367.483 480 351.489 576 337.337C672 323.185 768 299.305 864 265.698C960 232.091 1056 207.955 1152 193.291C1248 178.627 1344 167.585 1440 160.164V-177H0Z" fill="url(#paint4_linear_57_103)"/>
<text fill="white" xml:space="preserve" style="white-space: pre" font-family="Montserrat" font-size="44" font-weight="900" letter-spacing="0.06em"><tspan x="140" y="214.774">CEVA TITLUL</tspan></text>
</g>
<defs>
<linearGradient id="paint0_linear_57_103" x1="0" y1="-177" x2="1440" y2="-177" gradientUnits="userSpaceOnUse">
<stop stop-color="#146622"/>
<stop offset="0.26875" stop-color="#26B33E"/>
<stop offset="0.544792" stop-color="#177226"/>
<stop offset="1" stop-color="#23A539"/>
</linearGradient>
<linearGradient id="paint1_linear_57_103" x1="0" y1="-177" x2="1440" y2="-177" gradientUnits="userSpaceOnUse">
<stop stop-color="#146622"/>
<stop offset="0.26875" stop-color="#26B33E"/>
<stop offset="0.544792" stop-color="#177226"/>
<stop offset="1" stop-color="#23A539"/>
</linearGradient>
<linearGradient id="paint2_linear_57_103" x1="2.47425e-06" y1="3" x2="1440" y2="428" gradientUnits="userSpaceOnUse">
<stop stop-color="#146622"/>
<stop offset="0.26875" stop-color="#26B33E"/>
<stop offset="0.544792" stop-color="#177226"/>
<stop offset="1" stop-color="#23A539"/>
</linearGradient>
<linearGradient id="paint3_linear_57_103" x1="-2.20597e-06" y1="-0.999994" x2="1440" y2="415" gradientUnits="userSpaceOnUse">
<stop stop-color="#146622"/>
<stop offset="0.26875" stop-color="#26B33E"/>
<stop offset="0.544792" stop-color="#177226"/>
<stop offset="1" stop-color="#23A539"/>
</linearGradient>
<linearGradient id="paint4_linear_57_103" x1="-9.61486e-07" y1="5.50001" x2="1440" y2="461" gradientUnits="userSpaceOnUse">
<stop stop-color="#146622"/>
<stop offset="0.26875" stop-color="#26B33E"/>
<stop offset="0.544792" stop-color="#177226"/>
<stop offset="1" stop-color="#23A539"/>
</linearGradient>
</defs>
</svg>
