<svg width="1440" height="499" viewBox="0 0 1440 499" fill="none" xmlns="http://www.w3.org/2000/svg">
	<mask id="mask0_56_30" style="mask-type:alpha" maskUnits="userSpaceOnUse" x="0" y="0" width="1440" height="499">
		<rect width="1440" height="499" fill="#D9D9D9" />
	</mask>
	<g mask="url(#mask0_56_30)">
		<path opacity="0.4" d="M0 -177V498.787C96 415.052 192 363.252 288 343.387C384 323.522 480 320.126 576 333.199C672 346.272 768 335.708 864 301.509C960 267.31 1056 215.33 1152 145.57C1248 75.81 1344 54.093 1440 80.419V-177H0Z" fill="url(#paint0_linear_56_30)" />
		<path opacity="0.4" d="M0 -177V471.675C96 466.14 192 452.119 288 429.612C384 407.105 480 376.863 576 338.887C672 300.911 768 282.92 864 284.914C960 286.908 1056 250.264 1152 174.981C1248 99.6983 1344 98.9526 1440 172.744V-177H0Z" fill="url(#paint1_linear_56_30)" />
		<path opacity="0.4" d="M0 -177V427.447C96 430.778 192 422.169 288 401.622C384 381.075 480 342.061 576 284.582C672 227.103 768 226.847 864 283.815C960 340.783 1056 311.987 1152 197.428C1248 82.8687 1344 78.6807 1440 184.864V-177H0Z" fill="url(#paint2_linear_56_30)" />
		<path opacity="0.4" d="M0 -177V415.095C96 415.374 192 411.226 288 402.653C384 394.08 480 366.111 576 318.746C672 271.381 768 238.559 864 220.279C960 201.999 1056 196.835 1152 204.788C1248 212.741 1344 172.312 1440 83.501V-177H0Z" fill="url(#paint3_linear_56_30)" />
		<path opacity="0.4" d="M0 -177V461.186C96 428.444 192 403.155 288 385.319C384 367.483 480 351.489 576 337.337C672 323.185 768 299.305 864 265.698C960 232.091 1056 207.955 1152 193.291C1248 178.627 1344 167.585 1440 160.164V-177H0Z" fill="url(#paint4_linear_56_30)" />
		<path d="M143.648 234V189.2H165.728C170.72 189.2 175.115 190.117 178.912 191.952C182.709 193.744 185.675 196.304 187.808 199.632C189.941 202.96 191.008 206.928 191.008 211.536C191.008 216.187 189.941 220.197 187.808 223.568C185.675 226.896 182.709 229.477 178.912 231.312C175.115 233.104 170.72 234 165.728 234H143.648ZM158.752 222.224H165.088C167.221 222.224 169.077 221.819 170.656 221.008C172.277 220.197 173.536 219.003 174.432 217.424C175.328 215.803 175.776 213.84 175.776 211.536C175.776 209.275 175.328 207.355 174.432 205.776C173.536 204.197 172.277 203.003 170.656 202.192C169.077 201.381 167.221 200.976 165.088 200.976H158.752V222.224ZM214.187 205.84H234.155V216.72H214.187V205.84ZM215.211 222.608H237.611V234H200.363V189.2H236.779V200.592H215.211V222.608ZM263.97 235.024C260.215 235.024 256.588 234.597 253.09 233.744C249.591 232.891 246.711 231.781 244.45 230.416L249.314 219.408C251.447 220.645 253.815 221.648 256.418 222.416C259.063 223.141 261.623 223.504 264.098 223.504C265.548 223.504 266.679 223.419 267.49 223.248C268.343 223.035 268.962 222.757 269.346 222.416C269.73 222.032 269.922 221.584 269.922 221.072C269.922 220.261 269.474 219.621 268.578 219.152C267.682 218.683 266.487 218.299 264.994 218C263.543 217.659 261.943 217.317 260.194 216.976C258.444 216.592 256.674 216.101 254.882 215.504C253.132 214.907 251.511 214.117 250.018 213.136C248.567 212.155 247.394 210.875 246.498 209.296C245.602 207.675 245.154 205.669 245.154 203.28C245.154 200.507 245.922 197.989 247.458 195.728C249.036 193.424 251.362 191.589 254.434 190.224C257.548 188.859 261.41 188.176 266.018 188.176C269.047 188.176 272.034 188.496 274.978 189.136C277.922 189.776 280.567 190.757 282.914 192.08L278.37 203.024C276.151 201.915 273.996 201.083 271.906 200.528C269.858 199.973 267.852 199.696 265.89 199.696C264.439 199.696 263.287 199.824 262.434 200.08C261.58 200.336 260.962 200.677 260.578 201.104C260.236 201.531 260.066 202 260.066 202.512C260.066 203.28 260.514 203.899 261.41 204.368C262.306 204.795 263.479 205.157 264.93 205.456C266.423 205.755 268.044 206.075 269.794 206.416C271.586 206.757 273.356 207.227 275.106 207.824C276.855 208.421 278.455 209.211 279.906 210.192C281.399 211.173 282.594 212.453 283.49 214.032C284.386 215.611 284.834 217.573 284.834 219.92C284.834 222.651 284.044 225.168 282.466 227.472C280.93 229.733 278.626 231.568 275.554 232.976C272.482 234.341 268.62 235.024 263.97 235.024ZM293.168 234V189.2H314.736C318.917 189.2 322.523 189.883 325.552 191.248C328.624 192.613 330.992 194.576 332.656 197.136C334.32 199.653 335.152 202.64 335.152 206.096C335.152 209.552 334.32 212.539 332.656 215.056C330.992 217.573 328.624 219.536 325.552 220.944C322.523 222.309 318.917 222.992 314.736 222.992H301.552L308.272 216.528V234H293.168ZM308.272 218.192L301.552 211.344H313.776C315.867 211.344 317.403 210.875 318.384 209.936C319.408 208.997 319.92 207.717 319.92 206.096C319.92 204.475 319.408 203.195 318.384 202.256C317.403 201.317 315.867 200.848 313.776 200.848H301.552L308.272 194V218.192ZM343.946 234V189.2H365.514C369.695 189.2 373.3 189.883 376.33 191.248C379.402 192.613 381.77 194.576 383.434 197.136C385.098 199.653 385.93 202.64 385.93 206.096C385.93 209.552 385.098 212.539 383.434 215.056C381.77 217.531 379.402 219.429 376.33 220.752C373.3 222.075 369.695 222.736 365.514 222.736H352.33L359.05 216.528V234H343.946ZM370.762 234L359.754 217.68H375.754L386.89 234H370.762ZM359.05 218.192L352.33 211.344H364.554C366.644 211.344 368.18 210.875 369.162 209.936C370.186 208.997 370.698 207.717 370.698 206.096C370.698 204.475 370.186 203.195 369.162 202.256C368.18 201.317 366.644 200.848 364.554 200.848H352.33L359.05 194V218.192ZM409.297 205.84H429.265V216.72H409.297V205.84ZM410.321 222.608H432.721V234H395.473V189.2H431.889V200.592H410.321V222.608Z" fill="white" />
	</g>
	<defs>
		<linearGradient id="paint0_linear_56_30" x1="0" y1="-177" x2="1440" y2="-177" gradientUnits="userSpaceOnUse">
			<stop stop-color="#146622" />
			<stop offset="0.26875" stop-color="#26B33E" />
			<stop offset="0.544792" stop-color="#177226" />
			<stop offset="1" stop-color="#23A539" />
		</linearGradient>
		<linearGradient id="paint1_linear_56_30" x1="0" y1="-177" x2="1440" y2="-177" gradientUnits="userSpaceOnUse">
			<stop stop-color="#146622" />
			<stop offset="0.26875" stop-color="#26B33E" />
			<stop offset="0.544792" stop-color="#177226" />
			<stop offset="1" stop-color="#23A539" />
		</linearGradient>
		<linearGradient id="paint2_linear_56_30" x1="2.47425e-06" y1="3" x2="1440" y2="428" gradientUnits="userSpaceOnUse">
			<stop stop-color="#146622" />
			<stop offset="0.26875" stop-color="#26B33E" />
			<stop offset="0.544792" stop-color="#177226" />
			<stop offset="1" stop-color="#23A539" />
		</linearGradient>
		<linearGradient id="paint3_linear_56_30" x1="-2.20597e-06" y1="-0.999994" x2="1440" y2="415" gradientUnits="userSpaceOnUse">
			<stop stop-color="#146622" />
			<stop offset="0.26875" stop-color="#26B33E" />
			<stop offset="0.544792" stop-color="#177226" />
			<stop offset="1" stop-color="#23A539" />
		</linearGradient>
		<linearGradient id="paint4_linear_56_30" x1="-9.61486e-07" y1="5.50001" x2="1440" y2="461" gradientUnits="userSpaceOnUse">
			<stop stop-color="#146622" />
			<stop offset="0.26875" stop-color="#26B33E" />
			<stop offset="0.544792" stop-color="#177226" />
			<stop offset="1" stop-color="#23A539" />
		</linearGradient>
	</defs>
</svg>
