<svg fill="#26b33e" width="24" height="24" xmlns="http://www.w3.org/2000/svg" fill-rule="evenodd" clip-rule="evenodd"><path d="M16.786 5.799l1.507-1.506c-.188-.392-.293-.83-.293-1.293 0-1.656 1.344-3 3-3s3 1.344 3 3-1.344 3-3 3c-.463 0-.901-.105-1.293-.293l-1.48 1.481c1.109 1.373 1.773 3.12 1.773 5.02 0 1.795-.592 3.452-1.591 4.787l1.298 1.298c.392-.188.83-.293 1.293-.293 1.656 0 3 1.344 3 3s-1.344 3-3 3-3-1.344-3-3c0-.463.105-.901.293-1.293l-1.272-1.272c-1.373 1.109-3.12 1.773-5.021 1.773-1.901 0-3.648-.664-5.021-1.773l-1.272 1.272c.188.392.293.83.293 1.293 0 1.656-1.344 3-3 3s-3-1.344-3-3 1.344-3 3-3c.463 0 .901.105 1.293.293l1.298-1.298c-.999-1.335-1.591-2.992-1.591-4.787 0-1.9.664-3.647 1.773-5.02l-1.48-1.481c-.392.188-.83.293-1.293.293-1.656 0-3-1.344-3-3s1.344-3 3-3 3 1.344 3 3c0 .463-.105.901-.293 1.293l1.507 1.506c1.335-.999 2.992-1.591 4.786-1.591 1.794 0 3.451.592 4.786 1.591zm4.214 14.201c.552 0 1 .448 1 1s-.448 1-1 1-1-.448-1-1 .448-1 1-1zm-18 0c.552 0 1 .448 1 1s-.448 1-1 1-1-.448-1-1 .448-1 1-1zm9-13.792c3.311 0 6 2.689 6 6 0 3.312-2.689 6-6 6s-6-2.688-6-6c0-3.311 2.689-6 6-6zm.133 2.884c-.069-.21.088-.425.306-.425.135 0 .261.085.306.221l1.897 4.762c.057.17-.035.352-.204.409-.169.056-.352-.036-.408-.205 0 0-1.198-.401-2.618.07l.934 1.452c.097.142.029.337-.132.391l-.635.211-.134.022c-.119 0-.235-.051-.317-.143l-1.283-1.416c-.699.221-1.489-.034-1.753-.692-.061-.151-.092-.312-.092-.473 0-.469.262-.948.831-1.227 2.847-1.398 3.302-2.957 3.302-2.957zm2.022.304c.506.214.93.622 1.153 1.172.223.551.203 1.14-.011 1.647l.491.209c.139-.329.212-.685.212-1.047 0-1.056-.624-2.045-1.637-2.473l-.208.492zm-.354.841c.291.123.536.358.664.675.128.317.117.656-.006.948l.479.203c.174-.415.192-.897.009-1.347-.182-.451-.529-.784-.944-.959l-.202.48zm-10.801-8.237c.552 0 1 .448 1 1s-.448 1-1 1-1-.448-1-1 .448-1 1-1zm18 0c.552 0 1 .448 1 1s-.448 1-1 1-1-.448-1-1 .448-1 1-1z"/></svg>