<svg width="2122" height="736" viewBox="0 0 2122 736" fill="none" xmlns="http://www.w3.org/2000/svg">
<mask id="mask0_57_104" style="mask-type:alpha" maskUnits="userSpaceOnUse" x="0" y="0" width="2122" height="736">
<rect width="2122" height="735.332" fill="#D9D9D9"/>
</mask>
<g mask="url(#mask0_57_104)">
<path opacity="0.4" d="M0 -260.828V735.019C141.467 611.626 282.933 535.293 424.4 506.02C565.867 476.747 707.333 471.743 848.8 491.007C990.267 510.271 1131.73 494.705 1273.2 444.308C1414.67 393.912 1556.13 317.314 1697.6 214.515C1839.07 111.716 1980.53 79.7131 2122 118.507V-260.828H0Z" fill="url(#paint0_linear_57_104)"/>
<path opacity="0.4" d="M0 -260.828V695.067C141.467 686.911 282.933 666.249 424.4 633.082C565.867 599.915 707.333 555.351 848.8 499.389C990.267 443.427 1131.73 416.915 1273.2 419.853C1414.67 422.792 1556.13 368.792 1697.6 257.855C1839.07 146.918 1980.53 145.819 2122 254.559V-260.828H0Z" fill="url(#paint1_linear_57_104)"/>
<path opacity="0.4" d="M0 -260.828V629.892C141.467 634.8 282.933 622.114 424.4 591.836C565.867 561.557 707.333 504.066 848.8 419.364C990.267 334.662 1131.73 334.285 1273.2 418.234C1414.67 502.183 1556.13 459.749 1697.6 290.933C1839.07 122.117 1980.53 115.946 2122 272.419V-260.828H0Z" fill="url(#paint2_linear_57_104)"/>
<path opacity="0.4" d="M0 -260.828V611.69C141.467 612.1 282.933 605.989 424.4 593.355C565.867 580.721 707.333 539.506 848.8 469.709C990.267 399.912 1131.73 351.544 1273.2 324.607C1414.67 297.669 1556.13 290.06 1697.6 301.779C1839.07 313.498 1980.53 253.921 2122 123.049V-260.828H0Z" fill="url(#paint3_linear_57_104)"/>
<path opacity="0.4" d="M0 -260.828V679.61C141.467 631.361 282.933 594.095 424.4 567.811C565.867 541.528 707.333 517.959 848.8 497.105C990.267 476.25 1131.73 441.061 1273.2 391.537C1414.67 342.012 1556.13 306.446 1697.6 284.837C1839.07 263.228 1980.53 246.956 2122 236.02V-260.828H0Z" fill="url(#paint4_linear_57_104)"/>
<text fill="white" xml:space="preserve" style="white-space: pre" font-family="Montserrat" font-size="64" font-weight="900" letter-spacing="0.06em"><tspan x="206.305" y="315.407">CEVA TITLUL</tspan></text>
</g>
<defs>
<linearGradient id="paint0_linear_57_104" x1="0" y1="-260.828" x2="2122" y2="-260.828" gradientUnits="userSpaceOnUse">
<stop stop-color="#146622"/>
<stop offset="0.26875" stop-color="#26B33E"/>
<stop offset="0.544792" stop-color="#177226"/>
<stop offset="1" stop-color="#23A539"/>
</linearGradient>
<linearGradient id="paint1_linear_57_104" x1="0" y1="-260.828" x2="2122" y2="-260.828" gradientUnits="userSpaceOnUse">
<stop stop-color="#146622"/>
<stop offset="0.26875" stop-color="#26B33E"/>
<stop offset="0.544792" stop-color="#177226"/>
<stop offset="1" stop-color="#23A539"/>
</linearGradient>
<linearGradient id="paint2_linear_57_104" x1="3.64608e-06" y1="4.42188" x2="2122" y2="630.707" gradientUnits="userSpaceOnUse">
<stop stop-color="#146622"/>
<stop offset="0.26875" stop-color="#26B33E"/>
<stop offset="0.544792" stop-color="#177226"/>
<stop offset="1" stop-color="#23A539"/>
</linearGradient>
<linearGradient id="paint3_linear_57_104" x1="-3.25075e-06" y1="-1.47256" x2="2122" y2="611.55" gradientUnits="userSpaceOnUse">
<stop stop-color="#146622"/>
<stop offset="0.26875" stop-color="#26B33E"/>
<stop offset="0.544792" stop-color="#177226"/>
<stop offset="1" stop-color="#23A539"/>
</linearGradient>
<linearGradient id="paint4_linear_57_104" x1="-1.41686e-06" y1="8.10591" x2="2122" y2="679.336" gradientUnits="userSpaceOnUse">
<stop stop-color="#146622"/>
<stop offset="0.26875" stop-color="#26B33E"/>
<stop offset="0.544792" stop-color="#177226"/>
<stop offset="1" stop-color="#23A539"/>
</linearGradient>
</defs>
</svg>
