<svg width="251" height="238" viewBox="0 0 251 238" fill="none" xmlns="http://www.w3.org/2000/svg">
    <path d="M-25.0858 138.475C-11.0161 159.754 8.62982 176.29 34.8119 182.971C65.4464 190.789 103.134 199.64 129.893 178.026C156.26 156.729 144.938 120.067 150.918 89.1933C156.178 62.0344 200.208 23.1196 186 1.49885C171.73 -20.2148 115 -33.0011 85.7665 -9.94701" stroke="#6EF188" stroke-width="5"/>
    <path d="M102.313 -47.0568C126.682 -39.512 148.059 -25.2852 161.808 -2.02347C177.895 25.194 196.949 58.8925 183.698 90.636C170.641 121.913 132.275 121.316 104.312 135.705C79.7147 148.363 54.6935 201.533 29.958 193.95C5.1163 186.335 -36.2801 131.302 -22.3391 96.7803" stroke="#26B33E" stroke-width="5"/>
    </svg>
    