<svg width="1440" height="499" viewBox="0 0 1440 499" fill="none" xmlns="http://www.w3.org/2000/svg">
<mask id="mask0_56_30" style="mask-type:alpha" maskUnits="userSpaceOnUse" x="0" y="0" width="1440" height="499">
<rect width="1440" height="499" fill="#D9D9D9"/>
</mask>
<g mask="url(#mask0_56_30)">
<path opacity="0.4" d="M0 -177V498.787C96 415.052 192 363.252 288 343.387C384 323.522 480 320.126 576 333.199C672 346.272 768 335.708 864 301.509C960 267.31 1056 215.33 1152 145.57C1248 75.81 1344 54.093 1440 80.419V-177H0Z" fill="url(#paint0_linear_56_30)"/>
<path opacity="0.4" d="M0 -177V471.675C96 466.14 192 452.119 288 429.612C384 407.105 480 376.863 576 338.887C672 300.911 768 282.92 864 284.914C960 286.908 1056 250.264 1152 174.981C1248 99.6983 1344 98.9526 1440 172.744V-177H0Z" fill="url(#paint1_linear_56_30)"/>
<path opacity="0.4" d="M0 -177V427.447C96 430.778 192 422.169 288 401.622C384 381.075 480 342.061 576 284.582C672 227.103 768 226.847 864 283.815C960 340.783 1056 311.987 1152 197.428C1248 82.8687 1344 78.6807 1440 184.864V-177H0Z" fill="url(#paint2_linear_56_30)"/>
<path opacity="0.4" d="M0 -177V415.095C96 415.374 192 411.226 288 402.653C384 394.08 480 366.111 576 318.746C672 271.381 768 238.559 864 220.279C960 201.999 1056 196.835 1152 204.788C1248 212.741 1344 172.312 1440 83.501V-177H0Z" fill="url(#paint3_linear_56_30)"/>
<path opacity="0.4" d="M0 -177V461.186C96 428.444 192 403.155 288 385.319C384 367.483 480 351.489 576 337.337C672 323.185 768 299.305 864 265.698C960 232.091 1056 207.955 1152 193.291C1248 178.627 1344 167.585 1440 160.164V-177H0Z" fill="url(#paint4_linear_56_30)"/>
<path d="M160.352 235.024C156.597 235.024 152.971 234.597 149.472 233.744C145.973 232.891 143.093 231.781 140.832 230.416L145.696 219.408C147.829 220.645 150.197 221.648 152.8 222.416C155.445 223.141 158.005 223.504 160.48 223.504C161.931 223.504 163.061 223.419 163.872 223.248C164.725 223.035 165.344 222.757 165.728 222.416C166.112 222.032 166.304 221.584 166.304 221.072C166.304 220.261 165.856 219.621 164.96 219.152C164.064 218.683 162.869 218.299 161.376 218C159.925 217.659 158.325 217.317 156.576 216.976C154.827 216.592 153.056 216.101 151.264 215.504C149.515 214.907 147.893 214.117 146.4 213.136C144.949 212.155 143.776 210.875 142.88 209.296C141.984 207.675 141.536 205.669 141.536 203.28C141.536 200.507 142.304 197.989 143.84 195.728C145.419 193.424 147.744 191.589 150.816 190.224C153.931 188.859 157.792 188.176 162.4 188.176C165.429 188.176 168.416 188.496 171.36 189.136C174.304 189.776 176.949 190.757 179.296 192.08L174.752 203.024C172.533 201.915 170.379 201.083 168.288 200.528C166.24 199.973 164.235 199.696 162.272 199.696C160.821 199.696 159.669 199.824 158.816 200.08C157.963 200.336 157.344 200.677 156.96 201.104C156.619 201.531 156.448 202 156.448 202.512C156.448 203.28 156.896 203.899 157.792 204.368C158.688 204.795 159.861 205.157 161.312 205.456C162.805 205.755 164.427 206.075 166.176 206.416C167.968 206.757 169.739 207.227 171.488 207.824C173.237 208.421 174.837 209.211 176.288 210.192C177.781 211.173 178.976 212.453 179.872 214.032C180.768 215.611 181.216 217.573 181.216 219.92C181.216 222.651 180.427 225.168 178.848 227.472C177.312 229.733 175.008 231.568 171.936 232.976C168.864 234.341 165.003 235.024 160.352 235.024ZM218.607 189.2H233.711V234H218.607V189.2ZM204.655 234H189.551V189.2H204.655V234ZM219.631 217.488H203.631V205.072H219.631V217.488ZM268.38 235.024C264.711 235.024 261.319 234.448 258.204 233.296C255.132 232.144 252.465 230.523 250.204 228.432C247.943 226.299 246.172 223.803 244.892 220.944C243.655 218.085 243.036 214.971 243.036 211.6C243.036 208.187 243.655 205.072 244.892 202.256C246.172 199.397 247.943 196.923 250.204 194.832C252.465 192.699 255.132 191.056 258.204 189.904C261.319 188.752 264.689 188.176 268.316 188.176C271.985 188.176 275.356 188.752 278.428 189.904C281.5 191.056 284.167 192.699 286.428 194.832C288.689 196.923 290.439 199.397 291.676 202.256C292.956 205.072 293.596 208.187 293.596 211.6C293.596 214.971 292.956 218.085 291.676 220.944C290.439 223.803 288.689 226.299 286.428 228.432C284.167 230.523 281.5 232.144 278.428 233.296C275.356 234.448 272.007 235.024 268.38 235.024ZM268.316 222.8C269.724 222.8 271.025 222.544 272.22 222.032C273.457 221.52 274.524 220.795 275.42 219.856C276.359 218.875 277.084 217.701 277.596 216.336C278.108 214.928 278.364 213.349 278.364 211.6C278.364 209.851 278.108 208.293 277.596 206.928C277.084 205.52 276.359 204.347 275.42 203.408C274.524 202.427 273.457 201.68 272.22 201.168C271.025 200.656 269.724 200.4 268.316 200.4C266.908 200.4 265.585 200.656 264.348 201.168C263.153 201.68 262.087 202.427 261.148 203.408C260.252 204.347 259.548 205.52 259.036 206.928C258.524 208.293 258.268 209.851 258.268 211.6C258.268 213.349 258.524 214.928 259.036 216.336C259.548 217.701 260.252 218.875 261.148 219.856C262.087 220.795 263.153 221.52 264.348 222.032C265.585 222.544 266.908 222.8 268.316 222.8ZM302.918 234V189.2H324.486C328.667 189.2 332.273 189.883 335.302 191.248C338.374 192.613 340.742 194.576 342.406 197.136C344.07 199.653 344.902 202.64 344.902 206.096C344.902 209.552 344.07 212.539 342.406 215.056C340.742 217.573 338.374 219.536 335.302 220.944C332.273 222.309 328.667 222.992 324.486 222.992H311.302L318.022 216.528V234H302.918ZM318.022 218.192L311.302 211.344H323.526C325.617 211.344 327.153 210.875 328.134 209.936C329.158 208.997 329.67 207.717 329.67 206.096C329.67 204.475 329.158 203.195 328.134 202.256C327.153 201.317 325.617 200.848 323.526 200.848H311.302L318.022 194V218.192Z" fill="white"/>
</g>
<defs>
<linearGradient id="paint0_linear_56_30" x1="0" y1="-177" x2="1440" y2="-177" gradientUnits="userSpaceOnUse">
<stop stop-color="#146622"/>
<stop offset="0.26875" stop-color="#26B33E"/>
<stop offset="0.544792" stop-color="#177226"/>
<stop offset="1" stop-color="#23A539"/>
</linearGradient>
<linearGradient id="paint1_linear_56_30" x1="0" y1="-177" x2="1440" y2="-177" gradientUnits="userSpaceOnUse">
<stop stop-color="#146622"/>
<stop offset="0.26875" stop-color="#26B33E"/>
<stop offset="0.544792" stop-color="#177226"/>
<stop offset="1" stop-color="#23A539"/>
</linearGradient>
<linearGradient id="paint2_linear_56_30" x1="2.47425e-06" y1="3" x2="1440" y2="428" gradientUnits="userSpaceOnUse">
<stop stop-color="#146622"/>
<stop offset="0.26875" stop-color="#26B33E"/>
<stop offset="0.544792" stop-color="#177226"/>
<stop offset="1" stop-color="#23A539"/>
</linearGradient>
<linearGradient id="paint3_linear_56_30" x1="-2.20597e-06" y1="-0.999994" x2="1440" y2="415" gradientUnits="userSpaceOnUse">
<stop stop-color="#146622"/>
<stop offset="0.26875" stop-color="#26B33E"/>
<stop offset="0.544792" stop-color="#177226"/>
<stop offset="1" stop-color="#23A539"/>
</linearGradient>
<linearGradient id="paint4_linear_56_30" x1="-9.61486e-07" y1="5.50001" x2="1440" y2="461" gradientUnits="userSpaceOnUse">
<stop stop-color="#146622"/>
<stop offset="0.26875" stop-color="#26B33E"/>
<stop offset="0.544792" stop-color="#177226"/>
<stop offset="1" stop-color="#23A539"/>
</linearGradient>
</defs>
</svg>
