<svg width="1440" height="499" viewBox="0 0 1440 499" fill="none" xmlns="http://www.w3.org/2000/svg">
    <mask id="mask0_56_54" style="mask-type:alpha" maskUnits="userSpaceOnUse" x="0" y="0" width="1440" height="499">
    <rect width="1440" height="499" fill="#D9D9D9"/>
    </mask>
    <g mask="url(#mask0_56_54)">
    <path opacity="0.4" d="M0 -177V498.787C96 415.052 192 363.252 288 343.387C384 323.522 480 320.126 576 333.199C672 346.272 768 335.708 864 301.509C960 267.31 1056 215.33 1152 145.57C1248 75.81 1344 54.093 1440 80.419V-177H0Z" fill="url(#paint0_linear_56_54)"/>
    <path opacity="0.4" d="M0 -177V471.675C96 466.14 192 452.119 288 429.612C384 407.105 480 376.863 576 338.887C672 300.911 768 282.92 864 284.914C960 286.908 1056 250.264 1152 174.981C1248 99.6983 1344 98.9527 1440 172.744V-177H0Z" fill="url(#paint1_linear_56_54)"/>
    <path opacity="0.4" d="M0 -177V427.447C96 430.778 192 422.169 288 401.622C384 381.075 480 342.061 576 284.582C672 227.103 768 226.847 864 283.815C960 340.783 1056 311.987 1152 197.428C1248 82.8687 1344 78.6807 1440 184.864V-177H0Z" fill="url(#paint2_linear_56_54)"/>
    <path opacity="0.4" d="M0 -177V415.095C96 415.374 192 411.226 288 402.653C384 394.08 480 366.111 576 318.746C672 271.381 768 238.559 864 220.279C960 201.999 1056 196.835 1152 204.788C1248 212.741 1344 172.312 1440 83.501V-177H0Z" fill="url(#paint3_linear_56_54)"/>
    <path opacity="0.4" d="M0 -177V461.186C96 428.444 192 403.155 288 385.319C384 367.483 480 351.489 576 337.337C672 323.185 768 299.305 864 265.698C960 232.091 1056 207.955 1152 193.291C1248 178.627 1344 167.585 1440 160.164V-177H0Z" fill="url(#paint4_linear_56_54)"/>
    <path d="M153.376 234V200.912H140.256V189.2H181.6V200.912H168.48V234H153.376ZM203.187 205.84H223.155V216.72H203.187V205.84ZM204.211 222.608H226.611V234H189.363V189.2H225.779V200.592H204.211V222.608ZM231.402 234L250.986 189.2H265.834L285.418 234H269.802L255.338 196.368H261.226L246.762 234H231.402ZM243.05 226.192L246.89 215.312H267.498L271.338 226.192H243.05ZM291.668 234V189.2H304.084L322.004 218.448H315.476L332.884 189.2H345.3L345.428 234H331.668L331.54 209.936H333.716L321.812 229.968H315.156L302.74 209.936H305.428V234H291.668ZM379.598 234V189.2H392.014L409.934 218.448H403.406L420.814 189.2H433.23L433.358 234H419.598L419.47 209.936H421.646L409.742 229.968H403.086L390.67 209.936H393.358V234H379.598ZM458.325 205.84H478.293V216.72H458.325V205.84ZM459.349 222.608H481.749V234H444.501V189.2H480.917V200.592H459.349V222.608ZM491.403 234V189.2H503.819L521.739 218.448H515.211L532.619 189.2H545.035L545.163 234H531.403L531.275 209.936H533.451L521.547 229.968H514.891L502.475 209.936H505.163V234H491.403ZM556.306 234V189.2H580.242C586.428 189.2 590.994 190.309 593.938 192.528C596.882 194.704 598.354 197.499 598.354 200.912C598.354 203.173 597.714 205.2 596.434 206.992C595.196 208.741 593.383 210.128 590.994 211.152C588.604 212.176 585.66 212.688 582.162 212.688L583.442 209.232C586.94 209.232 589.948 209.723 592.466 210.704C595.026 211.685 596.988 213.115 598.354 214.992C599.762 216.827 600.466 219.045 600.466 221.648C600.466 225.531 598.844 228.56 595.602 230.736C592.402 232.912 587.708 234 581.522 234H556.306ZM571.154 223.44H580.242C581.906 223.44 583.143 223.141 583.954 222.544C584.807 221.947 585.234 221.072 585.234 219.92C585.234 218.768 584.807 217.893 583.954 217.296C583.143 216.699 581.906 216.4 580.242 216.4H570.13V206.416H578.194C579.9 206.416 581.138 206.139 581.906 205.584C582.716 204.987 583.122 204.155 583.122 203.088C583.122 201.979 582.716 201.147 581.906 200.592C581.138 200.037 579.9 199.76 578.194 199.76H571.154V223.44ZM623.469 205.84H643.438V216.72H623.469V205.84ZM624.493 222.608H646.894V234H609.645V189.2H646.062V200.592H624.493V222.608ZM656.548 234V189.2H678.116C682.297 189.2 685.903 189.883 688.932 191.248C692.004 192.613 694.372 194.576 696.036 197.136C697.7 199.653 698.532 202.64 698.532 206.096C698.532 209.552 697.7 212.539 696.036 215.056C694.372 217.531 692.004 219.429 688.932 220.752C685.903 222.075 682.297 222.736 678.116 222.736H664.932L671.652 216.528V234H656.548ZM683.364 234L672.356 217.68H688.356L699.492 234H683.364ZM671.652 218.192L664.932 211.344H677.156C679.247 211.344 680.783 210.875 681.764 209.936C682.788 208.997 683.3 207.717 683.3 206.096C683.3 204.475 682.788 203.195 681.764 202.256C680.783 201.317 679.247 200.848 677.156 200.848H664.932L671.652 194V218.192ZM724.779 235.024C721.025 235.024 717.398 234.597 713.899 233.744C710.401 232.891 707.521 231.781 705.259 230.416L710.123 219.408C712.257 220.645 714.625 221.648 717.227 222.416C719.873 223.141 722.433 223.504 724.907 223.504C726.358 223.504 727.489 223.419 728.299 223.248C729.153 223.035 729.771 222.757 730.155 222.416C730.539 222.032 730.731 221.584 730.731 221.072C730.731 220.261 730.283 219.621 729.387 219.152C728.491 218.683 727.297 218.299 725.803 218C724.353 217.659 722.753 217.317 721.003 216.976C719.254 216.592 717.483 216.101 715.691 215.504C713.942 214.907 712.321 214.117 710.827 213.136C709.377 212.155 708.203 210.875 707.307 209.296C706.411 207.675 705.963 205.669 705.963 203.28C705.963 200.507 706.731 197.989 708.267 195.728C709.846 193.424 712.171 191.589 715.243 190.224C718.358 188.859 722.219 188.176 726.827 188.176C729.857 188.176 732.843 188.496 735.787 189.136C738.731 189.776 741.377 190.757 743.723 192.08L739.179 203.024C736.961 201.915 734.806 201.083 732.715 200.528C730.667 199.973 728.662 199.696 726.699 199.696C725.249 199.696 724.097 199.824 723.243 200.08C722.39 200.336 721.771 200.677 721.387 201.104C721.046 201.531 720.875 202 720.875 202.512C720.875 203.28 721.323 203.899 722.219 204.368C723.115 204.795 724.289 205.157 725.739 205.456C727.233 205.755 728.854 206.075 730.603 206.416C732.395 206.757 734.166 207.227 735.915 207.824C737.665 208.421 739.265 209.211 740.715 210.192C742.209 211.173 743.403 212.453 744.299 214.032C745.195 215.611 745.643 217.573 745.643 219.92C745.643 222.651 744.854 225.168 743.275 227.472C741.739 229.733 739.435 231.568 736.363 232.976C733.291 234.341 729.43 235.024 724.779 235.024Z" fill="white"/>
    </g>
    <defs>
    <linearGradient id="paint0_linear_56_54" x1="0" y1="-177" x2="1440" y2="-177" gradientUnits="userSpaceOnUse">
    <stop stop-color="#146622"/>
    <stop offset="0.26875" stop-color="#26B33E"/>
    <stop offset="0.544792" stop-color="#177226"/>
    <stop offset="1" stop-color="#23A539"/>
    </linearGradient>
    <linearGradient id="paint1_linear_56_54" x1="0" y1="-177" x2="1440" y2="-177" gradientUnits="userSpaceOnUse">
    <stop stop-color="#146622"/>
    <stop offset="0.26875" stop-color="#26B33E"/>
    <stop offset="0.544792" stop-color="#177226"/>
    <stop offset="1" stop-color="#23A539"/>
    </linearGradient>
    <linearGradient id="paint2_linear_56_54" x1="2.47425e-06" y1="3" x2="1440" y2="428" gradientUnits="userSpaceOnUse">
    <stop stop-color="#146622"/>
    <stop offset="0.26875" stop-color="#26B33E"/>
    <stop offset="0.544792" stop-color="#177226"/>
    <stop offset="1" stop-color="#23A539"/>
    </linearGradient>
    <linearGradient id="paint3_linear_56_54" x1="-2.20597e-06" y1="-0.999994" x2="1440" y2="415" gradientUnits="userSpaceOnUse">
    <stop stop-color="#146622"/>
    <stop offset="0.26875" stop-color="#26B33E"/>
    <stop offset="0.544792" stop-color="#177226"/>
    <stop offset="1" stop-color="#23A539"/>
    </linearGradient>
    <linearGradient id="paint4_linear_56_54" x1="-9.61486e-07" y1="5.50001" x2="1440" y2="461" gradientUnits="userSpaceOnUse">
    <stop stop-color="#146622"/>
    <stop offset="0.26875" stop-color="#26B33E"/>
    <stop offset="0.544792" stop-color="#177226"/>
    <stop offset="1" stop-color="#23A539"/>
    </linearGradient>
    </defs>
    </svg>
    