<svg clip-rule="evenodd" fill-rule="evenodd" fill="#26b33e" stroke-linejoin="round" stroke-miterlimit="2" viewBox="0 0 24 24" xmlns="http://www.w3.org/2000/svg"><path d="m22 17.75c0-.414-.336-.75-.75-.75h-9.5c-.414 0-.75.336-.75.75s.336.75.75.75h9.5c.414 0 .75-.336.75-.75zm-19.749-1.377 2.172 1.936c.144.128.324.191.502.191.204 0 .408-.082.557-.244l3.677-4.02c.131-.145.197-.326.197-.506 0-.413-.334-.751-.753-.751-.205 0-.408.082-.558.244l-3.174 3.47-1.616-1.44c-.144-.128-.323-.191-.502-.191-.418 0-.753.338-.753.751 0 .206.084.412.251.56zm15.749-2.623c0-.414-.336-.75-.75-.75h-5.5c-.414 0-.75.336-.75.75s.336.75.75.75h5.5c.414 0 .75-.336.75-.75zm-15.749-5.356 2.172 1.936c.144.128.324.191.502.191.204 0 .408-.082.557-.244l3.677-4.02c.131-.144.197-.326.197-.506 0-.412-.334-.751-.753-.751-.205 0-.408.082-.558.244l-3.174 3.471-1.616-1.44c-.144-.128-.323-.192-.502-.192-.418 0-.753.338-.753.752 0 .206.084.411.251.559zm17.749 1.356c0-.414-.336-.75-.75-.75h-7.5c-.414 0-.75.336-.75.75s.336.75.75.75h7.5c.414 0 .75-.336.75-.75zm2-4c0-.414-.336-.75-.75-.75h-9.5c-.414 0-.75.336-.75.75s.336.75.75.75h9.5c.414 0 .75-.336.75-.75z" fill-rule="nonzero"/></svg>